<?xml version="1.0" encoding="UTF-8" standalone="no"?>
<svg
   xmlns:dc="http://purl.org/dc/elements/1.1/"
   xmlns:cc="http://creativecommons.org/ns#"
   xmlns:rdf="http://www.w3.org/1999/02/22-rdf-syntax-ns#"
   xmlns:svg="http://www.w3.org/2000/svg"
   xmlns="http://www.w3.org/2000/svg"
   viewBox="0 0 666.66669 666.66669"
   height="666.66669"
   width="666.66669"
   xml:space="preserve"
   id="svg2"
   version="1.1"><metadata
     id="metadata8"><rdf:RDF><cc:Work
         rdf:about=""><dc:format>image/svg+xml</dc:format><dc:type
           rdf:resource="http://purl.org/dc/dcmitype/StillImage" /></cc:Work></rdf:RDF></metadata><defs
     id="defs6"><clipPath
       id="clipPath20"
       clipPathUnits="userSpaceOnUse"><path
         id="path18"
         d="M 0,500 H 500 V 0 H 0 Z" /></clipPath></defs><g
     transform="matrix(1.3333333,0,0,-1.3333333,0,666.66667)"
     id="g10"><path
       id="path12"
       style="fill:#f8fbfc;fill-opacity:1;fill-rule:nonzero;stroke:none"
       d="M 0,0 H 500 V 500 H 0 Z" /><g
       id="g14"><g
         clip-path="url(#clipPath20)"
         id="g16"><g
           transform="translate(415.7998,176.0156)"
           id="g22"><path
             id="path24"
             style="fill:#ff6b7a;fill-opacity:1;fill-rule:nonzero;stroke:none"
             d="m 0,0 c 0,-2.62 -0.112,-5.221 -0.318,-7.804 h -0.019 c -16.582,10.387 -68.986,31.423 -68.986,31.423 0,0 -18.191,15.497 -28.784,29.945 1.329,4.942 3.668,15.89 5.82,26.202 0.3,1.423 0.599,2.845 0.88,4.23 0.767,0.112 1.497,0.262 2.208,0.412 11.38,2.451 16.133,9.32 17.574,19.37 C -28.354,81.095 0,43.065 0,0" /></g><g
           transform="translate(389.5229,176.7646)"
           id="g26"><path
             id="path28"
             style="fill:#0f3744;fill-opacity:1;fill-rule:nonzero;stroke:none"
             d="m 0,0 c 1.217,-0.936 20.7,-15.945 21.617,-18.753 0.935,-2.808 -6.944,-28.916 -11.567,-36.476 -0.131,-0.225 -0.28,-0.45 -0.411,-0.637 -14.692,-22.983 -38.311,-42.054 -67.395,-54.556 14.298,16.17 21.691,42.821 21.691,42.821 l -9.002,31.873 20.606,4.773 4.267,23.244 c -4.641,12.783 -15.347,21.654 -15.347,21.654 -2.264,3.07 -4.791,6.12 -7.505,8.927 0,0 52.404,-21.036 68.986,-31.423 h 0.018 c -0.093,-1.347 -0.243,-2.658 -0.411,-3.986 z" /></g><g
           transform="translate(389.5229,176.7646)"
           id="g30"><path
             id="path32"
             style="fill:#6d9ca7;fill-opacity:1;fill-rule:nonzero;stroke:none"
             d="m 0,0 25.547,-12.539 c -1.834,-15.179 -7.206,-29.571 -15.497,-42.69 4.623,7.56 12.502,33.668 11.567,36.476 C 20.7,-15.945 1.217,-0.936 0,0" /></g><g
           transform="translate(373.353,353.9829)"
           id="g34"><path
             id="path36"
             style="fill:#04272f;fill-opacity:1;fill-rule:nonzero;stroke:none"
             d="m 0,0 c 12.764,-3.893 28.429,-14.973 27.792,-27.456 0,0 -3.106,6.326 -11.36,14.973 C 8.703,-4.38 0.936,-0.468 0,0" /></g><g
           transform="translate(401.1455,326.5269)"
           id="g38"><path
             id="path40"
             style="fill:#0f3744;fill-opacity:1;fill-rule:nonzero;stroke:none"
             d="m 0,0 c 0.636,12.483 -15.029,23.563 -27.792,27.456 -0.038,0.019 -0.057,0.019 -0.094,0.037 0,0 0.037,-0.018 0.094,-0.037 0.935,-0.468 8.702,-4.38 16.432,-12.483 C -3.107,6.326 0,0 0,0 m -17.406,-24.33 c -1.385,-0.655 -46.508,-21.748 -132.899,-21.748 v 36.515 c 28.784,0 55.417,4.21 72.017,11.098 15.871,6.588 23.489,12.652 23.62,14.972 0.131,2.34 -10.631,4.174 -10.631,4.174 l -0.168,-0.019 c -0.58,4.604 -1.366,9.564 -2.227,14.711 -0.113,0.617 -0.225,1.253 -0.337,1.89 l 2.433,0.056 C 5.353,32.64 12.708,1.666 -2.002,-16.526 c -8.685,-10.743 -23.302,-21.485 -54.763,-28.485 -0.767,-0.168 -1.553,-0.337 -2.339,-0.505 -4.323,-0.917 -8.946,-1.759 -13.906,-2.527 -19.857,-3.069 -45.067,-4.885 -77.295,-4.885 v 3.294 c 78.549,0 113.155,12.128 132.899,25.304" /></g><g
           transform="translate(361.375,149.5332)"
           id="g42"><path
             id="path44"
             style="fill:#04272f;fill-opacity:1;fill-rule:nonzero;stroke:none"
             d="m 0,0 h 0.019 c 3.331,12.072 5.184,20.288 5.184,20.288 0,0 -4.848,10.425 -12.596,20.887 0,0 10.706,-8.871 15.347,-21.654 L 3.687,-3.724 -16.919,-8.496 -7.917,-40.369 c 0,0 -7.393,-26.652 -21.691,-42.821 -2.414,-1.048 -4.866,-2.04 -7.355,-2.976 9.994,11.285 18.883,31.236 25.883,50.831 -0.131,0.318 -11.435,28.448 -11.435,28.448 l 6.625,2.021 z" /></g><g
           transform="translate(346.4585,114.1611)"
           id="g46"><path
             id="path48"
             style="fill:#0f3744;fill-opacity:1;fill-rule:nonzero;stroke:none"
             d="m 0,0 c -0.355,-0.243 -5.914,-3.78 -18.884,2.957 -13.756,7.149 -13.756,38.76 -13.756,38.76 0.262,-27.456 -6.813,-76.529 -15.908,-100.503 -0.524,-0.131 -1.067,-0.243 -1.61,-0.356 4.698,20.101 12.109,79.055 14.093,123.692 0.674,14.917 0.73,28.223 -0.131,37.955 3.911,5.446 6.681,10.106 7.43,12.914 C -18.173,100.971 0.019,85.474 0.019,85.474 2.732,82.667 5.259,79.616 7.523,76.547 15.272,66.085 20.119,55.66 20.119,55.66 c 0,0 -1.852,-8.216 -5.184,-20.288 h -0.018 l -15.89,-4.866 -25.678,37.113 c 0.711,-1.254 12.184,-21.429 19.052,-39.134 0,0 11.305,-28.13 11.436,-28.448 -7,-19.595 -15.89,-39.546 -25.884,-50.831 l -0.019,-0.019 c -1.516,-0.581 -3.069,-1.141 -4.622,-1.684 C -18.173,-40.501 -8.104,-23.227 0,0" /></g><g
           transform="translate(250.8403,280.4492)"
           id="g50"><path
             id="path52"
             style="fill:#04272f;fill-opacity:1;fill-rule:nonzero;stroke:none"
             d="M 0,0 C 86.391,0 131.515,21.092 132.899,21.748 113.155,8.572 78.549,-3.556 0,-3.556 Z" /></g><g
           transform="translate(335.8467,347.2075)"
           id="g54"><path
             id="path56"
             style="fill:#04272f;fill-opacity:1;fill-rule:nonzero;stroke:none"
             d="m 0,0 c 0,0 10.762,-1.834 10.63,-4.173 -0.13,-2.321 -7.748,-8.385 -23.619,-14.973 -16.6,-6.887 -43.233,-11.098 -72.017,-11.098 v 3.499 c 65.822,0 85.568,20.12 85.568,20.12 -0.187,2.115 -0.431,4.323 -0.73,6.606 z" /></g><g
           transform="translate(319.8076,181.7803)"
           id="g58"><path
             id="path60"
             style="fill:#04272f;fill-opacity:1;fill-rule:nonzero;stroke:none"
             d="m 0,0 25.678,-37.113 -6.626,-2.021 C 12.184,-21.429 0.711,-1.254 0,0" /></g><g
           transform="translate(344.1753,279.7939)"
           id="g62"><path
             id="path64"
             style="fill:#6d9ca7;fill-opacity:1;fill-rule:nonzero;stroke:none"
             d="m 0,0 c -1.441,-10.05 -6.195,-16.919 -17.574,-19.371 0,0 8.703,6.738 10.724,9.302 4.716,5.989 4.716,11.286 4.716,11.286 0.786,0.168 1.572,0.337 2.34,0.505 C 0.149,1.142 0.075,0.562 0,0" /></g><g
           transform="translate(327.5742,117.1182)"
           id="g66"><path
             id="path68"
             style="fill:#0f3744;fill-opacity:1;fill-rule:nonzero;stroke:none"
             d="M 0,0 C 12.97,-6.737 18.529,-3.2 18.884,-2.957 10.78,-26.184 0.711,-43.458 -7.804,-55.454 c -7.019,-2.471 -14.336,-4.586 -21.86,-6.289 9.096,23.974 16.17,73.047 15.908,100.503 0,0 0,-31.611 13.756,-38.76" /></g><g
           transform="translate(342.0415,281.0107)"
           id="g70"><path
             id="path72"
             style="fill:#04272f;fill-opacity:1;fill-rule:nonzero;stroke:none"
             d="m 0,0 c 0,0 0,-5.297 -4.716,-11.286 -2.021,-2.564 -10.724,-9.301 -10.724,-9.301 -0.711,-0.15 -1.441,-0.3 -2.209,-0.412 1.366,6.55 2.545,12.408 3.182,15.702 0.356,1.759 0.561,2.77 0.561,2.77 C -8.946,-1.759 -4.323,-0.917 0,0" /></g><g
           transform="translate(260.3853,354.1885)"
           id="g74"><path
             id="path76"
             style="fill:#355d69;fill-opacity:1;fill-rule:nonzero;stroke:none"
             d="M 0,0 C 41.212,1.404 65.149,11.585 71.793,14.842 71.999,13.7 72.205,12.577 72.411,11.454 65.056,6.981 54.294,3.762 41.306,1.235 c 0,0 13.681,-2.957 31.76,6.476 0.861,-5.147 1.647,-10.107 2.227,-14.711 0.299,-2.283 0.543,-4.491 0.73,-6.606 0,0 -19.745,-20.12 -85.568,-20.12 V -0.168 C -6.27,-0.168 -3.088,-0.112 0,0" /></g><g
           transform="translate(333.1143,363.7896)"
           id="g78"><path
             id="path80"
             style="fill:#0f3744;fill-opacity:1;fill-rule:nonzero;stroke:none"
             d="m 0,0 c 0.112,-0.636 0.225,-1.272 0.337,-1.89 -18.079,-9.433 -31.76,-6.476 -31.76,-6.476 12.988,2.527 23.75,5.746 31.105,10.219 C -0.206,1.235 -0.112,0.618 0,0" /></g><g
           transform="translate(331.355,373.5029)"
           id="g82"><path
             id="path84"
             style="fill:#04272f;fill-opacity:1;fill-rule:nonzero;stroke:none"
             d="M 0,0 C 0.281,-1.497 0.562,-2.994 0.824,-4.473 -5.82,-7.729 -29.758,-17.911 -70.97,-19.314 -27.175,-14.841 -10.93,-5.951 0,0" /></g><g
           transform="translate(322.3525,427.3291)"
           id="g86"><path
             id="path88"
             style="fill:#0f3744;fill-opacity:1;fill-rule:nonzero;stroke:none"
             d="m 0,0 c 1.348,-14.935 5.484,-34.961 9.002,-53.826 -10.929,-5.951 -27.174,-14.841 -70.969,-19.315 -3.088,-0.112 -6.27,-0.168 -9.545,-0.168 V 0.58 c 29.627,0 31.741,17.424 31.741,17.424 -6.213,-4.435 -12.764,-8.328 -31.741,-8.328 v 2.321 c 3.93,-0.206 9.845,-0.057 16.638,1.946 7.767,2.265 13.363,5.952 16.657,8.516 5.521,0.206 12.408,-0.038 25.809,-9.676 C -6.513,8.534 -2.564,3.743 0,0 m -18.248,11.042 c 0.543,-0.486 9.152,-8.197 11.211,-16.245 2.115,-8.328 7.935,-36.982 7.935,-36.982 l -3.481,39.097 c 0,0 -2.919,7.355 -15.665,14.13" /></g><g
           transform="translate(328.1357,278.4839)"
           id="g90"><path
             id="path92"
             style="fill:#04272f;fill-opacity:1;fill-rule:nonzero;stroke:none"
             d="m 0,0 c 0,0 -0.206,-1.011 -0.562,-2.77 0,0 -4.584,-11.341 -8.01,-22.159 -4.267,-1.946 -8.609,-2.096 -20.718,-2.321 -15.684,-0.281 -20.138,-3.387 -26.333,-3.575 -6.194,-0.186 -12.969,7.169 -21.672,7.169 V -4.885 C -45.067,-4.885 -19.857,-3.069 0,0" /></g><g
           transform="translate(327.5742,275.7139)"
           id="g94"><path
             id="path96"
             style="fill:#6d9ca7;fill-opacity:1;fill-rule:nonzero;stroke:none"
             d="m 0,0 c -0.636,-3.294 -1.815,-9.152 -3.182,-15.702 -0.28,-1.385 -0.58,-2.807 -0.879,-4.23 -1.441,-0.936 -2.676,-1.666 -3.949,-2.227 C -4.585,-11.341 0,0 0,0" /></g><g
           transform="translate(319.77,424.2412)"
           id="g98"><path
             id="path100"
             style="fill:#355d69;fill-opacity:1;fill-rule:nonzero;stroke:none"
             d="m 0,0 3.481,-39.097 c 0,0 -5.82,28.654 -7.935,36.982 C -6.513,5.933 -15.122,13.644 -15.665,14.13 -2.919,7.355 0,0 0,0" /></g><g
           transform="translate(319.564,253.5547)"
           id="g102"><path
             id="path104"
             style="fill:#f8fbfc;fill-opacity:1;fill-rule:nonzero;stroke:none"
             d="m 0,0 c 1.273,0.562 2.508,1.292 3.949,2.227 -2.152,-10.312 -4.491,-21.26 -5.821,-26.202 -0.748,-2.807 -3.518,-7.467 -7.429,-12.914 -2.658,-3.705 -5.84,-7.766 -9.265,-11.865 -6.456,-7.692 -13.793,-15.516 -20.25,-21.242 1.067,1.066 11.024,11.079 19.651,24.611 9.134,14.298 13.756,21.86 16.077,33.875 C -2.452,-8.179 -1.31,-4.136 0,0" /></g><g
           transform="translate(269.4624,239.0127)"
           id="g106"><path
             id="path108"
             style="fill:#6d9ca7;fill-opacity:1;fill-rule:nonzero;stroke:none"
             d="m 0,0 c 5.989,-1.497 13.063,-11.454 14.056,-19.314 0.112,-1.46 0.112,-2.377 0.112,-2.377 0.037,0.767 0,1.553 -0.112,2.377 -0.188,2.919 -0.693,7.991 -2.078,11.959 C 10.219,-2.358 2.396,-0.468 0,0 m -5.465,-65.299 c -5.222,-1.235 -10.649,-1.44 -13.157,-1.44 v 27.118 c 7,0 15.328,5.072 15.852,5.391 -0.393,-0.039 -5.222,-0.619 -15.852,-0.619 v 7.618 c 14.074,0 27.493,1.927 27.493,1.927 -7.224,0.131 -18.715,3.108 -20.531,2.957 -1.797,-0.149 -6.962,-3.592 -6.962,-3.592 v 15.085 c 5.877,0 8.535,2.338 9.732,4.509 7.374,1.573 8.179,6.476 8.179,6.476 -1.273,-1.74 -2.901,-3.013 -7.206,-2.845 0,0 -3.874,-5.428 -10.705,-5.428 v 23.957 c 8.703,0 15.478,-7.355 21.673,-7.169 6.195,0.188 10.649,3.294 26.333,3.575 12.109,0.225 16.45,0.375 20.718,2.321 C 48.792,10.406 47.65,6.363 47.014,3.032 44.693,-8.983 40.07,-16.545 30.937,-30.843 22.309,-44.375 12.353,-54.388 11.286,-55.454 c -0.057,-0.037 -0.094,-0.075 -0.094,-0.075 -4.155,-3.687 -7.917,-6.494 -10.837,-7.842 -1.777,-0.823 -3.78,-1.46 -5.82,-1.928" /></g><g
           transform="translate(310.2627,216.666)"
           id="g110"><path
             id="path112"
             style="fill:#f8fbfc;fill-opacity:1;fill-rule:nonzero;stroke:none"
             d="m 0,0 c 0.861,-9.731 0.805,-23.038 0.131,-37.955 -0.73,-4.847 -1.647,-9.47 -2.62,-13.699 -3.238,-14.075 -7.112,-23.975 -7.112,-23.975 -7.281,10.125 -17.687,19.015 -25.566,24.966 -2.938,2.209 -5.521,4.024 -7.449,5.315 14.449,4.548 22.609,15.853 33.351,33.483 C -5.839,-7.767 -2.658,-3.705 0,0" /></g><g
           transform="translate(307.7734,165.0117)"
           id="g114"><path
             id="path116"
             style="fill:#6d9ca7;fill-opacity:1;fill-rule:nonzero;stroke:none"
             d="m 0,0 c 0.973,4.229 1.89,8.853 2.62,13.699 -1.984,-44.636 -9.395,-103.591 -14.093,-123.691 -3.013,-0.655 -6.064,-1.254 -9.133,-1.778 C -11.005,-85.063 -0.318,-2.583 0,0" /></g><g
           transform="translate(300.6616,141.0371)"
           id="g118"><path
             id="path120"
             style="fill:#f8fbfc;fill-opacity:1;fill-rule:nonzero;stroke:none"
             d="m 0,0 c 0,0 3.874,9.9 7.112,23.975 -0.319,-2.583 -11.005,-85.063 -20.606,-111.77 -3.182,-0.543 -6.382,-1.029 -9.639,-1.423 0,0 -4.229,42.372 -5.577,58.374 -1.366,16.002 -8.983,36.533 -8.983,36.533 l 6.999,13.157 1.984,2.358 c 0,0 17.611,-10.817 28.71,-21.204" /></g><g
           transform="translate(280.748,183.5586)"
           id="g122"><path
             id="path124"
             style="fill:#0f3744;fill-opacity:1;fill-rule:nonzero;stroke:none"
             d="M 0,0 C 6.457,5.727 13.793,13.55 20.25,21.242 9.507,3.612 1.348,-7.692 -13.101,-12.24 c -2.133,1.441 -3.462,2.283 -3.649,2.395 2.04,0.468 4.042,1.105 5.82,1.928 2.92,1.348 6.681,4.155 10.836,7.842 0,0 0.038,0.038 0.094,0.075" /></g><g
           transform="translate(281.4404,231.6572)"
           id="g126"><path
             id="path128"
             style="fill:#0f3744;fill-opacity:1;fill-rule:nonzero;stroke:none"
             d="M 0,0 C 1.385,-3.968 1.89,-9.039 2.078,-11.959 1.085,-4.099 -5.989,5.858 -11.978,7.355 -9.583,6.888 -1.759,4.997 0,0" /></g><g
           transform="translate(300.6616,141.0371)"
           id="g130"><path
             id="path132"
             style="fill:#04272f;fill-opacity:1;fill-rule:nonzero;stroke:none"
             d="m 0,0 c -11.099,10.387 -28.71,21.204 -28.71,21.204 l 3.144,3.762 C -17.687,19.015 -7.281,10.125 0,0" /></g><g
           transform="translate(282.582,445.3335)"
           id="g134"><path
             id="path136"
             style="fill:#04272f;fill-opacity:1;fill-rule:nonzero;stroke:none"
             d="m 0,0 c 0,0 -2.115,-17.424 -31.742,-17.424 v 9.095 C -12.764,-8.329 -6.213,-4.436 0,0" /></g><g
           transform="translate(277.5288,51.8193)"
           id="g138"><path
             id="path140"
             style="fill:#04272f;fill-opacity:1;fill-rule:nonzero;stroke:none"
             d="m 0,0 c -1.647,-0.206 -3.294,-0.393 -4.959,-0.562 0,0 -2.115,45.386 -4.698,63.447 -2.583,18.079 -8.516,32.527 -8.516,32.527 l 10.612,12.651 -7,-13.156 c 0,0 7.618,-20.531 8.984,-36.533 C -4.229,42.372 0,0 0,0" /></g><g
           transform="translate(275.0957,166.0029)"
           id="g142"><path
             id="path144"
             style="fill:#0f3744;fill-opacity:1;fill-rule:nonzero;stroke:none"
             d="M 0,0 -3.144,-3.762 -5.128,-6.12 -15.74,-18.771 h -8.515 V 3.051 c 6.513,0 12.015,0.767 16.806,2.264 C -5.521,4.024 -2.938,2.209 0,0" /></g><g
           transform="translate(272.5693,51.2578)"
           id="g146"><path
             id="path148"
             style="fill:#0f3744;fill-opacity:1;fill-rule:nonzero;stroke:none"
             d="M 0,0 C -1.217,-0.131 -2.433,-0.243 -3.649,-0.318 L -3.668,0 c 1.048,18.791 -2.938,60.096 -2.938,60.096 0,0 -0.413,-50.7 -7.543,-61.05 -2.508,-0.094 -5.035,-0.131 -7.58,-0.131 v 97.059 h 8.516 c 0,0 5.933,-14.449 8.515,-32.528 C -2.115,45.386 0,0 0,0" /></g><g
           transform="translate(278.3335,213.709)"
           id="g150"><path
             id="path152"
             style="fill:#0f3744;fill-opacity:1;fill-rule:nonzero;stroke:none"
             d="m 0,0 c 0,0 -13.419,-1.928 -27.493,-1.928 v 1.292 c 0,0 5.165,3.444 6.962,3.593 C -18.715,3.107 -7.224,0.131 0,0" /></g><g
           transform="translate(265.9629,111.3535)"
           id="g154"><path
             id="path156"
             style="fill:#6d9ca7;fill-opacity:1;fill-rule:nonzero;stroke:none"
             d="m 0,0 c 0,0 3.986,-41.305 2.938,-60.096 l 0.019,-0.318 C -0.505,-60.713 -4.005,-60.938 -7.542,-61.05 -0.412,-50.7 0,0 0,0" /></g><g
           transform="translate(268.7515,239.1436)"
           id="g158"><path
             id="path160"
             style="fill:#04272f;fill-opacity:1;fill-rule:nonzero;stroke:none"
             d="m 0,0 c 0,0 -0.805,-4.903 -8.179,-6.476 1.03,1.891 0.973,3.631 0.973,3.631 C -2.901,-3.013 -1.273,-1.74 0,0" /></g><g
           transform="translate(263.9976,173.7139)"
           id="g162"><path
             id="path164"
             style="fill:#04272f;fill-opacity:1;fill-rule:nonzero;stroke:none"
             d="M 0,0 C 0.187,-0.112 1.516,-0.954 3.649,-2.396 -1.142,-3.893 -6.644,-4.66 -13.157,-4.66 v 3.22 c 2.508,0 7.935,0.205 13.157,1.44" /></g><g
           transform="translate(250.8403,204.1641)"
           id="g166"><path
             id="path168"
             style="fill:#6d9ca7;fill-opacity:1;fill-rule:nonzero;stroke:none"
             d="M 0,0 C 10.63,0 15.459,0.58 15.852,0.618 15.328,0.3 7,-4.772 0,-4.772 Z" /></g><g
           transform="translate(260.5728,232.668)"
           id="g170"><path
             id="path172"
             style="fill:#04272f;fill-opacity:1;fill-rule:nonzero;stroke:none"
             d="m 0,0 c -1.198,-2.171 -3.855,-4.51 -9.732,-4.51 v 2.713 c 6.831,0 10.705,5.428 10.705,5.428 0,0 0.056,-1.74 -0.973,-3.631" /></g><g
           transform="translate(85.8745,176.0156)"
           id="g174"><path
             id="path176"
             style="fill:#ff6b7a;fill-opacity:1;fill-rule:nonzero;stroke:none"
             d="m 0,0 c 0,-2.62 0.112,-5.221 0.318,-7.804 h 0.019 c 16.582,10.387 68.986,31.423 68.986,31.423 0,0 18.191,15.497 28.784,29.945 -1.328,4.942 -3.668,15.89 -5.82,26.202 -0.3,1.423 -0.599,2.845 -0.88,4.23 -0.767,0.112 -1.497,0.262 -2.208,0.412 -11.379,2.451 -16.133,9.32 -17.574,19.37 C 28.354,81.095 0,43.065 0,0" /></g><g
           transform="translate(112.1514,176.7646)"
           id="g178"><path
             id="path180"
             style="fill:#0f3744;fill-opacity:1;fill-rule:nonzero;stroke:none"
             d="m 0,0 c -1.216,-0.936 -20.699,-15.945 -21.616,-18.753 -0.936,-2.808 6.943,-28.916 11.566,-36.476 0.131,-0.225 0.28,-0.45 0.411,-0.637 14.692,-22.983 38.311,-42.054 67.395,-54.556 -14.298,16.17 -21.691,42.821 -21.691,42.821 l 9.002,31.873 -20.606,4.773 -4.267,23.244 c 4.641,12.783 15.347,21.654 15.347,21.654 2.265,3.07 4.791,6.12 7.505,8.927 0,0 -52.404,-21.036 -68.986,-31.423 h -0.018 c 0.093,-1.347 0.243,-2.658 0.411,-3.986 z" /></g><g
           transform="translate(112.1514,176.7646)"
           id="g182"><path
             id="path184"
             style="fill:#6d9ca7;fill-opacity:1;fill-rule:nonzero;stroke:none"
             d="m 0,0 -25.547,-12.539 c 1.835,-15.179 7.206,-29.571 15.497,-42.69 -4.623,7.56 -12.502,33.668 -11.566,36.476 C -20.699,-15.945 -1.216,-0.936 0,0" /></g><g
           transform="translate(128.3218,353.9829)"
           id="g186"><path
             id="path188"
             style="fill:#04272f;fill-opacity:1;fill-rule:nonzero;stroke:none"
             d="m 0,0 c -12.764,-3.893 -28.429,-14.973 -27.792,-27.456 0,0 3.106,6.326 11.36,14.973 C -8.703,-4.38 -0.936,-0.468 0,0" /></g><g
           transform="translate(100.5293,326.5269)"
           id="g190"><path
             id="path192"
             style="fill:#0f3744;fill-opacity:1;fill-rule:nonzero;stroke:none"
             d="m 0,0 c -0.637,12.483 15.028,23.563 27.792,27.456 0.038,0.019 0.057,0.019 0.094,0.037 0,0 -0.037,-0.018 -0.094,-0.037 C 26.856,26.988 19.09,23.076 11.36,14.973 3.106,6.326 0,0 0,0 m 67.694,35.373 c 0.112,0.617 0.224,1.253 0.337,1.89 l -2.433,0.056 C -5.353,32.64 -12.708,1.666 2.002,-16.526 c 8.685,-10.743 23.301,-21.485 54.762,-28.485 0.768,-0.168 1.553,-0.337 2.34,-0.505 4.323,-0.917 8.946,-1.759 13.905,-2.527 19.858,-3.069 45.068,-4.885 77.296,-4.885 v 3.294 c -78.55,0 -113.155,12.128 -132.9,25.304 1.385,-0.655 46.509,-21.748 132.9,-21.748 v 36.515 c -28.785,0 -55.417,4.21 -72.018,11.098 -15.87,6.588 -23.488,12.652 -23.619,14.972 -0.131,2.34 10.63,4.174 10.63,4.174 l 0.169,-0.019 c 0.58,4.604 1.366,9.564 2.227,14.711" /></g><g
           transform="translate(140.2998,149.5332)"
           id="g194"><path
             id="path196"
             style="fill:#04272f;fill-opacity:1;fill-rule:nonzero;stroke:none"
             d="m 0,0 h -0.019 c -3.331,12.072 -5.184,20.288 -5.184,20.288 0,0 4.848,10.425 12.596,20.887 0,0 -10.706,-8.871 -15.347,-21.654 L -3.687,-3.724 16.919,-8.496 7.917,-40.369 c 0,0 7.392,-26.652 21.691,-42.821 2.414,-1.048 4.866,-2.04 7.355,-2.976 -9.994,11.285 -18.884,31.236 -25.883,50.831 0.13,0.318 11.435,28.448 11.435,28.448 l -6.625,2.021 z" /></g><g
           transform="translate(181.8672,181.7803)"
           id="g198"><path
             id="path200"
             style="fill:#0f3744;fill-opacity:1;fill-rule:nonzero;stroke:none"
             d="m 0,0 c -0.711,-1.254 -12.184,-21.429 -19.053,-39.134 0,0 -11.304,-28.13 -11.435,-28.448 7,-19.595 15.89,-39.546 25.884,-50.831 l 0.019,-0.019 c 1.516,-0.581 3.069,-1.141 4.622,-1.684 -8.516,11.996 -18.584,29.27 -26.688,52.497 0.356,-0.243 5.914,-3.78 18.884,2.957 13.756,7.149 13.756,38.76 13.756,38.76 -0.262,-27.456 6.812,-76.529 15.908,-100.503 0.524,-0.131 1.067,-0.243 1.61,-0.356 C 18.809,-106.66 11.397,-47.706 9.414,-3.069 8.74,11.848 8.684,25.154 9.545,34.886 5.633,40.332 2.863,44.992 2.115,47.8 -8.479,33.352 -26.67,17.854 -26.67,17.854 c -2.714,-2.806 -5.24,-5.857 -7.505,-8.926 -7.748,-10.462 -12.596,-20.887 -12.596,-20.887 0,0 1.854,-8.216 5.185,-20.288 h 0.019 l 15.889,-4.866 z" /></g><g
           transform="translate(250.834,280.4492)"
           id="g202"><path
             id="path204"
             style="fill:#04272f;fill-opacity:1;fill-rule:nonzero;stroke:none"
             d="M 0,0 C -86.391,0 -131.515,21.092 -132.899,21.748 -113.154,8.572 -78.549,-3.556 0,-3.556 Z" /></g><g
           transform="translate(165.8276,347.2075)"
           id="g206"><path
             id="path208"
             style="fill:#04272f;fill-opacity:1;fill-rule:nonzero;stroke:none"
             d="m 0,0 c 0,0 -10.761,-1.834 -10.63,-4.173 0.13,-2.321 7.748,-8.385 23.619,-14.973 16.6,-6.887 43.233,-11.098 72.017,-11.098 v 3.499 c -65.822,0 -85.568,20.12 -85.568,20.12 0.188,2.115 0.431,4.323 0.73,6.606 z" /></g><g
           transform="translate(181.8672,181.7803)"
           id="g210"><path
             id="path212"
             style="fill:#04272f;fill-opacity:1;fill-rule:nonzero;stroke:none"
             d="m 0,0 -25.678,-37.113 6.625,-2.021 C -12.184,-21.429 -0.711,-1.254 0,0" /></g><g
           transform="translate(157.4995,279.7939)"
           id="g214"><path
             id="path216"
             style="fill:#6d9ca7;fill-opacity:1;fill-rule:nonzero;stroke:none"
             d="m 0,0 c 1.441,-10.05 6.195,-16.919 17.574,-19.371 0,0 -8.703,6.738 -10.724,9.302 C 2.133,-4.08 2.133,1.217 2.133,1.217 1.347,1.385 0.562,1.554 -0.206,1.722 -0.15,1.142 -0.075,0.562 0,0" /></g><g
           transform="translate(174.1001,117.1182)"
           id="g218"><path
             id="path220"
             style="fill:#0f3744;fill-opacity:1;fill-rule:nonzero;stroke:none"
             d="m 0,0 c -12.97,-6.737 -18.528,-3.2 -18.884,-2.957 8.104,-23.227 18.173,-40.501 26.688,-52.497 7.019,-2.471 14.337,-4.586 21.86,-6.289 -9.096,23.974 -16.17,73.047 -15.908,100.503 0,0 0,-31.611 -13.756,-38.76" /></g><g
           transform="translate(159.6328,281.0107)"
           id="g222"><path
             id="path224"
             style="fill:#04272f;fill-opacity:1;fill-rule:nonzero;stroke:none"
             d="m 0,0 c 0,0 0,-5.297 4.716,-11.286 2.022,-2.564 10.724,-9.301 10.724,-9.301 0.712,-0.15 1.441,-0.3 2.209,-0.412 -1.366,6.55 -2.545,12.408 -3.182,15.702 -0.355,1.759 -0.561,2.77 -0.561,2.77 C 8.946,-1.759 4.323,-0.917 0,0" /></g><g
           transform="translate(241.2891,354.1885)"
           id="g226"><path
             id="path228"
             style="fill:#355d69;fill-opacity:1;fill-rule:nonzero;stroke:none"
             d="m 0,0 c -41.212,1.404 -65.149,11.585 -71.793,14.842 -0.206,-1.142 -0.412,-2.265 -0.618,-3.388 7.356,-4.473 18.117,-7.692 31.106,-10.219 0,0 -13.681,-2.957 -31.761,6.476 -0.861,-5.147 -1.647,-10.107 -2.227,-14.711 -0.299,-2.283 -0.542,-4.491 -0.73,-6.606 0,0 19.745,-20.12 85.568,-20.12 V -0.168 C 6.27,-0.168 3.088,-0.112 0,0" /></g><g
           transform="translate(168.5601,363.7896)"
           id="g230"><path
             id="path232"
             style="fill:#0f3744;fill-opacity:1;fill-rule:nonzero;stroke:none"
             d="M 0,0 C -0.112,-0.636 -0.225,-1.272 -0.337,-1.89 17.743,-11.323 31.424,-8.366 31.424,-8.366 18.435,-5.839 7.674,-2.62 0.318,1.853 0.206,1.235 0.112,0.618 0,0" /></g><g
           transform="translate(170.3193,373.5029)"
           id="g234"><path
             id="path236"
             style="fill:#04272f;fill-opacity:1;fill-rule:nonzero;stroke:none"
             d="M 0,0 C -0.281,-1.497 -0.561,-2.994 -0.823,-4.473 5.821,-7.729 29.758,-17.911 70.97,-19.314 27.175,-14.841 10.93,-5.951 0,0" /></g><g
           transform="translate(179.3218,427.3291)"
           id="g238"><path
             id="path240"
             style="fill:#0f3744;fill-opacity:1;fill-rule:nonzero;stroke:none"
             d="m 0,0 c -1.348,-14.935 -5.484,-34.961 -9.002,-53.826 10.93,-5.951 27.175,-14.841 70.969,-19.315 3.088,-0.112 6.27,-0.168 9.545,-0.168 V 0.58 C 41.885,0.58 39.771,18.004 39.771,18.004 45.984,13.569 52.535,9.676 71.512,9.676 v 2.321 C 67.582,11.791 61.668,11.94 54.874,13.943 47.107,16.208 41.511,19.895 38.217,22.459 32.696,22.665 25.809,22.421 12.408,12.783 6.513,8.534 2.564,3.743 0,0 M 18.248,11.042 C 17.705,10.556 9.096,2.845 7.037,-5.203 4.922,-13.531 -0.898,-42.185 -0.898,-42.185 l 3.481,39.097 c 0,0 2.919,7.355 15.665,14.13" /></g><g
           transform="translate(173.5386,278.4839)"
           id="g242"><path
             id="path244"
             style="fill:#04272f;fill-opacity:1;fill-rule:nonzero;stroke:none"
             d="m 0,0 c 0,0 0.206,-1.011 0.562,-2.77 0,0 4.585,-11.341 8.01,-22.159 4.267,-1.946 8.609,-2.096 20.718,-2.321 15.684,-0.281 20.138,-3.387 26.333,-3.575 6.195,-0.186 12.97,7.169 21.672,7.169 V -4.885 C 45.067,-4.885 19.857,-3.069 0,0" /></g><g
           transform="translate(174.1001,275.7139)"
           id="g246"><path
             id="path248"
             style="fill:#6d9ca7;fill-opacity:1;fill-rule:nonzero;stroke:none"
             d="m 0,0 c 0.636,-3.294 1.815,-9.152 3.182,-15.702 0.28,-1.385 0.58,-2.807 0.879,-4.23 1.441,-0.936 2.677,-1.666 3.949,-2.227 C 4.585,-11.341 0,0 0,0" /></g><g
           transform="translate(181.9043,424.2412)"
           id="g250"><path
             id="path252"
             style="fill:#355d69;fill-opacity:1;fill-rule:nonzero;stroke:none"
             d="m 0,0 -3.481,-39.097 c 0,0 5.821,28.654 7.936,36.982 C 6.513,5.933 15.123,13.644 15.665,14.13 2.92,7.355 0,0 0,0" /></g><g
           transform="translate(182.1104,253.5547)"
           id="g254"><path
             id="path256"
             style="fill:#f8fbfc;fill-opacity:1;fill-rule:nonzero;stroke:none"
             d="m 0,0 c -1.272,0.562 -2.508,1.292 -3.949,2.227 2.152,-10.312 4.492,-21.26 5.821,-26.202 0.748,-2.807 3.518,-7.467 7.43,-12.914 2.657,-3.705 5.839,-7.766 9.264,-11.865 6.457,-7.692 13.793,-15.516 20.25,-21.242 C 37.75,-68.93 27.792,-58.917 19.165,-45.385 10.032,-31.087 5.409,-23.525 3.088,-11.51 2.452,-8.179 1.31,-4.136 0,0" /></g><g
           transform="translate(237.6768,173.7139)"
           id="g258"><path
             id="path260"
             style="fill:#6d9ca7;fill-opacity:1;fill-rule:nonzero;stroke:none"
             d="m 0,0 c 5.222,-1.235 10.649,-1.44 13.157,-1.44 v 27.118 c -6.999,0 -15.328,5.072 -15.852,5.39 0.393,-0.038 5.222,-0.618 15.852,-0.618 v 7.617 c -14.074,0 -27.493,1.928 -27.493,1.928 7.224,0.131 18.716,3.108 20.531,2.957 1.797,-0.149 6.962,-3.593 6.962,-3.593 v 15.085 c -5.876,0 -8.534,2.339 -9.732,4.51 -7.374,1.572 -8.178,6.476 -8.178,6.476 1.272,-1.741 2.9,-3.013 7.205,-2.845 0,0 3.874,-5.428 10.705,-5.428 v 23.957 c -8.702,0 -15.477,-7.355 -21.673,-7.169 -6.194,0.188 -10.649,3.294 -26.332,3.575 -12.109,0.225 -16.451,0.375 -20.718,2.321 1.31,-4.136 2.451,-8.179 3.087,-11.51 2.321,-12.016 6.944,-19.577 16.077,-33.875 C -27.774,20.924 -17.817,10.911 -16.75,9.845 -16.694,9.808 -16.657,9.77 -16.657,9.77 -12.502,6.083 -8.74,3.275 -5.82,1.928 -4.042,1.104 -2.04,0.468 0,0 m -5.465,65.299 c -5.989,-1.497 -13.063,-11.454 -14.055,-19.315 -0.112,-1.46 -0.112,-2.377 -0.112,-2.377 -0.038,0.768 0,1.554 0.112,2.377 0.187,2.92 0.692,7.992 2.077,11.959 1.759,4.997 9.583,6.888 11.978,7.356" /></g><g
           transform="translate(191.4121,216.666)"
           id="g262"><path
             id="path264"
             style="fill:#f8fbfc;fill-opacity:1;fill-rule:nonzero;stroke:none"
             d="m 0,0 c -0.861,-9.731 -0.805,-23.038 -0.131,-37.955 0.73,-4.847 1.647,-9.47 2.62,-13.699 3.238,-14.075 7.112,-23.975 7.112,-23.975 7.28,10.125 17.686,19.015 25.566,24.966 2.938,2.209 5.521,4.024 7.448,5.315 C 28.167,-40.8 20.007,-29.495 9.264,-11.865 5.839,-7.767 2.658,-3.705 0,0" /></g><g
           transform="translate(193.9014,165.0117)"
           id="g266"><path
             id="path268"
             style="fill:#6d9ca7;fill-opacity:1;fill-rule:nonzero;stroke:none"
             d="m 0,0 c -0.974,4.229 -1.891,8.853 -2.621,13.699 1.984,-44.636 9.396,-103.591 14.094,-123.691 3.013,-0.655 6.063,-1.254 9.132,-1.778 C 11.004,-85.063 0.318,-2.583 0,0" /></g><g
           transform="translate(201.0132,141.0371)"
           id="g270"><path
             id="path272"
             style="fill:#f8fbfc;fill-opacity:1;fill-rule:nonzero;stroke:none"
             d="m 0,0 c 0,0 -3.874,9.9 -7.112,23.975 0.318,-2.583 11.005,-85.063 20.606,-111.77 3.181,-0.543 6.382,-1.029 9.638,-1.423 0,0 4.23,42.372 5.577,58.374 1.367,16.002 8.984,36.533 8.984,36.533 l -7,13.157 -1.984,2.358 C 28.709,21.204 11.098,10.387 0,0" /></g><g
           transform="translate(220.9263,183.5586)"
           id="g274"><path
             id="path276"
             style="fill:#0f3744;fill-opacity:1;fill-rule:nonzero;stroke:none"
             d="M 0,0 C -6.457,5.727 -13.793,13.55 -20.25,21.242 -9.507,3.612 -1.347,-7.692 13.101,-12.24 c 2.134,1.441 3.462,2.283 3.649,2.395 -2.039,0.468 -4.042,1.105 -5.82,1.928 -2.919,1.348 -6.681,4.155 -10.836,7.842 0,0 -0.038,0.038 -0.094,0.075" /></g><g
           transform="translate(220.2339,231.6572)"
           id="g278"><path
             id="path280"
             style="fill:#0f3744;fill-opacity:1;fill-rule:nonzero;stroke:none"
             d="M 0,0 C -1.385,-3.968 -1.89,-9.039 -2.077,-11.959 -1.085,-4.099 5.989,5.858 11.978,7.355 9.583,6.888 1.759,4.997 0,0" /></g><g
           transform="translate(201.0132,141.0371)"
           id="g282"><path
             id="path284"
             style="fill:#04272f;fill-opacity:1;fill-rule:nonzero;stroke:none"
             d="m 0,0 c 11.098,10.387 28.709,21.204 28.709,21.204 l -3.144,3.762 C 17.686,19.015 7.28,10.125 0,0" /></g><g
           transform="translate(219.0923,445.3335)"
           id="g286"><path
             id="path288"
             style="fill:#04272f;fill-opacity:1;fill-rule:nonzero;stroke:none"
             d="m 0,0 c 0,0 2.115,-17.424 31.742,-17.424 v 9.095 C 12.764,-8.329 6.214,-4.436 0,0" /></g><g
           transform="translate(224.1455,51.8193)"
           id="g290"><path
             id="path292"
             style="fill:#04272f;fill-opacity:1;fill-rule:nonzero;stroke:none"
             d="m 0,0 c 1.647,-0.206 3.294,-0.393 4.959,-0.562 0,0 2.116,45.386 4.698,63.447 2.583,18.079 8.516,32.527 8.516,32.527 l -10.612,12.651 7,-13.156 c 0,0 -7.618,-20.531 -8.984,-36.533 C 4.23,42.372 0,0 0,0" /></g><g
           transform="translate(226.5786,166.0029)"
           id="g294"><path
             id="path296"
             style="fill:#0f3744;fill-opacity:1;fill-rule:nonzero;stroke:none"
             d="M 0,0 3.144,-3.762 5.128,-6.12 15.74,-18.771 h 8.515 V 3.051 C 17.742,3.051 12.24,3.818 7.449,5.315 5.521,4.024 2.938,2.209 0,0" /></g><g
           transform="translate(229.105,51.2578)"
           id="g298"><path
             id="path300"
             style="fill:#0f3744;fill-opacity:1;fill-rule:nonzero;stroke:none"
             d="M 0,0 C 1.217,-0.131 2.433,-0.243 3.65,-0.318 L 3.668,0 c -1.047,18.791 2.939,60.096 2.939,60.096 0,0 0.412,-50.7 7.542,-61.05 2.508,-0.094 5.035,-0.131 7.58,-0.131 v 97.059 h -8.516 c 0,0 -5.932,-14.449 -8.515,-32.528 C 2.115,45.386 0,0 0,0" /></g><g
           transform="translate(223.3408,213.709)"
           id="g302"><path
             id="path304"
             style="fill:#0f3744;fill-opacity:1;fill-rule:nonzero;stroke:none"
             d="m 0,0 c 0,0 13.419,-1.928 27.493,-1.928 v 1.292 c 0,0 -5.165,3.444 -6.962,3.593 C 18.716,3.107 7.224,0.131 0,0" /></g><g
           transform="translate(235.7119,111.3535)"
           id="g306"><path
             id="path308"
             style="fill:#04272f;fill-opacity:1;fill-rule:nonzero;stroke:none"
             d="m 0,0 c 0,0 -3.986,-41.305 -2.938,-60.096 l -0.019,-0.318 C 0.505,-60.713 4.005,-60.938 7.542,-61.05 0.412,-50.7 0,0 0,0" /></g><g
           transform="translate(232.9233,239.1436)"
           id="g310"><path
             id="path312"
             style="fill:#04272f;fill-opacity:1;fill-rule:nonzero;stroke:none"
             d="M 0,0 C 0,0 0.805,-4.903 8.179,-6.476 7.149,-4.585 7.206,-2.845 7.206,-2.845 2.901,-3.013 1.272,-1.74 0,0" /></g><g
           transform="translate(237.6768,173.7139)"
           id="g314"><path
             id="path316"
             style="fill:#04272f;fill-opacity:1;fill-rule:nonzero;stroke:none"
             d="M 0,0 C -0.187,-0.112 -1.516,-0.954 -3.649,-2.396 1.142,-3.893 6.644,-4.66 13.157,-4.66 v 3.22 C 10.649,-1.44 5.222,-1.235 0,0" /></g><g
           transform="translate(250.834,204.1641)"
           id="g318"><path
             id="path320"
             style="fill:#6d9ca7;fill-opacity:1;fill-rule:nonzero;stroke:none"
             d="M 0,0 C -10.63,0 -15.459,0.58 -15.852,0.618 -15.328,0.3 -7,-4.772 0,-4.772 Z" /></g><g
           transform="translate(241.1021,232.668)"
           id="g322"><path
             id="path324"
             style="fill:#04272f;fill-opacity:1;fill-rule:nonzero;stroke:none"
             d="m 0,0 c 1.198,-2.171 3.855,-4.51 9.732,-4.51 v 2.713 c -6.831,0 -10.705,5.428 -10.705,5.428 0,0 -0.056,-1.74 0.973,-3.631" /></g><g
           transform="translate(225.1841,212.6953)"
           id="g326"><path
             id="path328"
             style="fill:#f8fbfc;fill-opacity:1;fill-rule:nonzero;stroke:none"
             d="m 0,0 c 3.453,-1.613 2.484,-4.478 9.519,-4.465 7.035,0.012 14.327,1.088 14.327,1.088 l 17.038,1.925 10.485,2.067 -0.417,0.159 c 0,0 -12.333,-1.688 -25.302,-1.688 -12.969,0 -27.231,1.882 -27.231,1.882 z" /></g><g
           transform="translate(262.625,210.8545)"
           id="g330"><path
             id="path332"
             style="fill:#04272f;fill-opacity:1;fill-rule:nonzero;stroke:none"
             d="m 0,0 c -2.938,0.002 -6.831,0.022 -10.755,0.092 -7.936,0.142 -14.054,0.393 -27.289,2.595 -0.024,0.002 -0.05,0.005 -0.073,0.008 h -0.72 l 1.397,-0.854 c 3.452,-1.613 2.484,-4.478 9.518,-4.466 7.035,0.013 14.327,1.089 14.327,1.089 z" /></g><g
           transform="translate(257.2085,243.7246)"
           id="g334"><path
             id="path336"
             style="fill:#f8fbfc;fill-opacity:1;fill-rule:nonzero;stroke:none"
             d="M 0,0 C 1.713,0.216 2.612,-6.895 0.225,-6.891 -2.162,-6.888 -2.393,-0.301 0,0" /></g><g
           transform="translate(264.5869,209.4687)"
           id="g338"><path
             id="path340"
             style="fill:#f8fbfc;fill-opacity:1;fill-rule:nonzero;stroke:none"
             d="M 0,0 C 1.623,1.786 5.944,0.678 4.165,-0.484 2.384,-1.646 -1.319,-1.452 0,0" /></g><g
           transform="translate(255.5425,223.3271)"
           id="g342"><path
             id="path344"
             style="fill:#04272f;fill-opacity:1;fill-rule:nonzero;stroke:none"
             d="m 0,0 c 2.187,2.287 6.486,1.549 11.036,-0.581 4.549,-2.13 13.456,-5.421 13.068,-6.389 -0.189,-0.473 -2.419,-0.133 -2.764,-0.108 -2.052,0.144 -4.097,0.401 -6.134,0.678 -2.375,0.322 -4.752,0.644 -7.113,1.066 C 6.18,-4.992 4.061,-4.739 2.258,-3.986 1.042,-3.478 -1.395,-1.459 0,0" /></g><g
           transform="translate(246.1318,223.3271)"
           id="g346"><path
             id="path348"
             style="fill:#04272f;fill-opacity:1;fill-rule:nonzero;stroke:none"
             d="m 0,0 c -2.187,2.287 -6.486,1.549 -11.036,-0.581 -4.549,-2.13 -13.455,-5.421 -13.068,-6.389 0.189,-0.473 2.419,-0.133 2.765,-0.108 2.051,0.144 4.096,0.401 6.133,0.678 2.376,0.322 4.752,0.644 7.113,1.066 1.913,0.342 4.033,0.595 5.835,1.348 C -1.042,-3.478 1.395,-1.459 0,0" /></g><g
           transform="translate(237.6768,209.3184)"
           id="g350"><path
             id="path352"
             style="fill:#04272f;fill-opacity:1;fill-rule:nonzero;stroke:none"
             d="m 0,0 c 6.802,-0.582 32.465,2.372 40.657,4.391 0,0 -7.122,-3.049 -17.761,-3.613 C 12.257,0.215 -1.372,-3.059 -1.372,-3.059 Z" /></g><g
           transform="translate(223.3408,213.709)"
           id="g354"><path
             id="path356"
             style="fill:#04272f;fill-opacity:1;fill-rule:nonzero;stroke:none"
             d="m 0,0 c 0,0 2.597,-2.384 6.024,-4.932 l 1.385,1.036 -6.223,3.737 z" /></g><g
           transform="translate(243.6416,200.5625)"
           id="g358"><path
             id="path360"
             style="fill:#0f3744;fill-opacity:1;fill-rule:nonzero;stroke:none"
             d="M 0,0 C 6.292,0.581 20.328,2.227 20.667,1.064 21.006,-0.097 12.294,-3.775 7.454,-3.775 2.614,-3.775 0,0 0,0" /></g><g
           transform="translate(274.2866,213.9697)"
           id="g362"><path
             id="path364"
             style="fill:#04272f;fill-opacity:1;fill-rule:nonzero;stroke:none"
             d="M 0,0 C 0.798,0.426 3.894,0.262 4.475,-0.216 5.055,-0.693 7.933,-4.133 6.183,-4.355 5.455,-4.449 0,0 0,0" /></g><g
           transform="translate(227.3877,213.9697)"
           id="g366"><path
             id="path368"
             style="fill:#04272f;fill-opacity:1;fill-rule:nonzero;stroke:none"
             d="M 0,0 C -0.798,0.426 -3.894,0.262 -4.474,-0.216 -5.055,-0.693 -7.933,-4.133 -6.183,-4.355 -5.455,-4.449 0,0 0,0" /></g><g
           transform="translate(237.7847,208.0996)"
           id="g370"><path
             id="path372"
             style="fill:#0f3744;fill-opacity:1;fill-rule:nonzero;stroke:none"
             d="m 0,0 c -0.812,-2.244 -23.111,-21.607 -28.674,-27.027 v -0.025 c -1.409,-1.36 -2.268,-2.196 -2.268,-2.196 -0.096,0 -4.275,0.023 -7.092,3.939 -2.865,3.941 -1.098,5.922 -1.098,5.922 l 1.528,1.099 h 0.023 L -5.852,5.448 C -2.652,6.522 0.979,2.771 0,0" /></g><g
           transform="translate(209.1104,181.0723)"
           id="g374"><path
             id="path376"
             style="fill:#f8fbfc;fill-opacity:1;fill-rule:nonzero;stroke:none"
             d="m 0,0 v -0.024 c -1.409,-1.361 -2.268,-2.197 -2.268,-2.197 -0.096,0 -4.274,0.024 -7.092,3.94 -2.674,3.677 -1.313,5.635 -1.122,5.897 l 0.024,0.025 1.528,1.098 h 0.024 C -5.826,9.407 -0.242,3.283 0,0" /></g><g
           transform="translate(206.8423,178.8516)"
           id="g378"><path
             id="path380"
             style="fill:#ff6b7a;fill-opacity:1;fill-rule:nonzero;stroke:none"
             d="M 0,0 C -0.096,0 -4.274,0.023 -7.092,3.939 -9.766,7.617 -8.405,9.575 -8.214,9.837 L -8.19,9.861 C -7.187,10.577 -3.94,8.906 -2.245,6.495 -0.573,4.06 0.764,1.17 0,0" /></g><g
           transform="translate(237.6768,209.3184)"
           id="g382"><path
             id="path384"
             style="fill:#04272f;fill-opacity:1;fill-rule:nonzero;stroke:none"
             d="m 0,0 -28.566,-23.922 c 0,0 0.758,-1.168 0.617,-2.516 L 0,-1.624 0.867,-0.052 Z" /></g><g
           transform="translate(203.6118,190.708)"
           id="g386"><path
             id="path388"
             style="fill:#355d69;fill-opacity:1;fill-rule:nonzero;stroke:none"
             d="M 0,0 28.026,21.073 2.704,-1.298 Z" /></g><g
           transform="translate(346.8701,117.6973)"
           id="g390"><path
             id="path392"
             style="fill:#6d9ca7;fill-opacity:1;fill-rule:nonzero;stroke:none"
             d="m 0,0 -17.75,41.578 c 0,0 8.131,-27.545 11.229,-32.238 C -3.423,4.647 0,0 0,0" /></g><g
           transform="translate(140.1572,172.2734)"
           id="g394"><path
             id="path396"
             style="fill:#6d9ca7;fill-opacity:1;fill-rule:nonzero;stroke:none"
             d="M 0,0 C 0,0 13.274,21.882 15.059,24.021 16.844,26.159 12.197,17.32 9.487,11.285 6.776,5.25 0,0 0,0" /></g><g
           transform="translate(182.2129,200.1387)"
           id="g398"><path
             id="path400"
             style="fill:#faf8f7;fill-opacity:1;fill-rule:nonzero;stroke:none"
             d="m 0,0 c -4.808,3.919 -8.739,9.249 -9.705,15.378 -1.11,6.984 1.677,13.913 3.187,20.819 1.51,6.918 1.299,15.224 -4.175,19.71 -6.54,5.352 -17.666,2.809 -23.162,9.227 -3.831,4.486 -2.965,11.315 -0.822,16.811 2.154,5.507 5.385,10.77 5.707,16.666 0.4,7.306 -3.941,14.268 -9.759,18.71 -5.83,4.442 -12.97,6.751 -20.065,8.595 -5.43,1.41 -11.115,2.675 -15.545,6.128 -1.182,0.92 -2.198,2.004 -3.082,3.187 1.341,-3.252 3.428,-6.179 5.935,-8.638 2.706,-2.654 5.847,-4.864 9.259,-6.516 3.843,-1.861 7.996,-3.005 11.875,-4.79 3.878,-1.784 7.611,-4.371 9.534,-8.183 2.334,-4.629 1.584,-10.281 -0.419,-15.063 0.307,3.776 -1.855,7.414 -4.761,9.845 -6.395,5.347 -16.549,8.126 -24.575,9.631 -3.603,0.675 -7.344,1.093 -10.584,2.808 -3.24,1.716 -5.914,5.155 -5.417,8.788 -1.735,-7.008 -0.282,-14.537 2.888,-21.023 2.07,-4.235 4.842,-8.083 7.917,-11.642 2.951,-3.415 5.566,-5.054 9.398,-7.205 6.77,-3.799 15.14,-6.447 18.925,-13.823 1.721,-3.364 2.198,-7.351 4.486,-10.36 2.365,-3.12 6.118,-4.53 9.837,-6.018 2.543,-0.766 4.897,-1.91 6.94,-3.564 -2.021,1.565 -4.474,2.576 -6.94,3.564 -4.674,1.432 -9.926,1.632 -14.867,1.577 -8.295,-0.089 -17.288,-0.333 -23.995,4.552 -6.14,4.475 -8.617,11.892 -11.481,19.143 -2.377,3.997 -5.985,7.25 -10.382,8.661 -5.863,1.887 -12.991,0 -16.489,-5.063 -2.365,-3.42 -2.91,-7.773 -2.843,-11.926 0.067,-4.308 0.755,-8.694 2.832,-12.469 2.953,-5.374 8.45,-8.983 14.268,-10.926 11.304,-3.776 25.494,-4.197 37.319,-3.831 3.12,0.1 6.252,0.333 9.372,0.411 6.451,0.166 14.057,0.244 19.764,-3.198 8.184,-4.919 4.841,-16.367 4.997,-24.25 0.1,-5.408 0.933,-10.982 4.13,-15.468 6.074,-8.505 17.522,-13.136 27.682,-13.757 3.598,-0.223 7.65,0.644 8.716,4.353 C 10.349,-6.54 4.752,-3.875 0,0" /></g><g
           transform="translate(140.4287,236.9326)"
           id="g402"><path
             id="path404"
             style="fill:#faf8f7;fill-opacity:1;fill-rule:nonzero;stroke:none"
             d="m 0,0 c 0.403,-0.056 0.806,-0.12 1.208,-0.194 2.164,-0.4 4.357,-1.133 5.926,-2.675 2.301,-2.26 2.677,-5.548 2.882,-8.6 0.236,-3.507 0.168,-7.229 1.969,-10.249 -0.492,0.824 -1.628,1.466 -2.2,2.339 -0.671,1.025 -1.149,2.163 -1.58,3.306 -0.864,2.289 -1.451,4.713 -2.664,6.855 -3.023,5.344 -9.829,5.697 -15.284,4.66 -4.647,-0.883 -9.22,-2.421 -13.8,-3.551 -4.915,-1.212 -10.014,-1.871 -15.06,-2.214 -2.397,-0.162 -4.972,-0.195 -6.996,1.101 -1.676,1.075 -2.752,3.029 -2.762,5.02 -0.022,4.381 2.609,4.809 5.964,4.194 5.83,-1.07 11.658,-0.929 17.554,-0.742 4.277,0.136 8.552,0.349 12.822,0.639 C -8.036,0.16 -3.979,0.649 0,0" /></g></g></g></g></svg>