<?xml version="1.0" encoding="UTF-8" standalone="no"?>
<svg
   xmlns:dc="http://purl.org/dc/elements/1.1/"
   xmlns:cc="http://creativecommons.org/ns#"
   xmlns:rdf="http://www.w3.org/1999/02/22-rdf-syntax-ns#"
   xmlns:svg="http://www.w3.org/2000/svg"
   xmlns="http://www.w3.org/2000/svg"
   viewBox="0 0 666.66669 666.66669"
   height="666.66669"
   width="666.66669"
   xml:space="preserve"
   id="svg2"
   version="1.1"><metadata
     id="metadata8"><rdf:RDF><cc:Work
         rdf:about=""><dc:format>image/svg+xml</dc:format><dc:type
           rdf:resource="http://purl.org/dc/dcmitype/StillImage" /></cc:Work></rdf:RDF></metadata><defs
     id="defs6"><clipPath
       id="clipPath20"
       clipPathUnits="userSpaceOnUse"><path
         id="path18"
         d="M 0,500 H 500 V 0 H 0 Z" /></clipPath></defs><g
     transform="matrix(1.3333333,0,0,-1.3333333,0,666.66667)"
     id="g10"><path
       id="path12"
       style="fill:#f8fbfc;fill-opacity:1;fill-rule:nonzero;stroke:none"
       d="M 0,0 H 500 V 500 H 0 Z" /><g
       id="g14"><g
         clip-path="url(#clipPath20)"
         id="g16"><g
           transform="translate(414.6172,214.8008)"
           id="g22"><path
             id="path24"
             style="fill:#ff6564;fill-opacity:1;fill-rule:nonzero;stroke:none"
             d="m 0,0 c 0,-15.333 -2.096,-30.181 -6.026,-44.271 -8.313,3.908 -15.536,7.305 -19.537,9.188 v 0.012 c -2.12,0.995 -3.339,1.563 -3.339,1.563 l -0.983,2.285 c -0.982,2.286 -32.005,32.016 -34.609,34.574 -2.569,2.522 -4.878,0.036 -9.39,0 3.316,20.91 1.255,46.355 0.391,56.727 -0.178,2.191 -0.462,4.736 -0.841,7.59 0,0 5.092,-1.386 8.691,3.185 3.102,3.955 -0.983,23.384 -1.314,37.238 -0.048,1.989 -0.012,3.86 0.13,5.565 5.778,0.864 12.018,1.977 17.95,3.386 C -18.708,87.216 0,45.787 0,0" /></g><g
           transform="translate(389.0537,179.7178)"
           id="g26"><path
             id="path28"
             style="fill:#0f3744;fill-opacity:1;fill-rule:nonzero;stroke:none"
             d="M 0,0 C 4.002,-1.883 11.225,-5.28 19.537,-9.188 10.811,-40.553 -6.985,-68.153 -30.832,-88.969 l -13.119,27.553 c 1.077,-0.023 11.083,-0.142 20.034,0.77 9.472,0.983 13.226,5.695 13.226,5.695 l 0.011,0.083 z" /></g><g
           transform="translate(389.0537,179.7295)"
           id="g30"><path
             id="path32"
             style="fill:#04272f;fill-opacity:1;fill-rule:nonzero;stroke:none"
             d="M 0,0 V -0.012 L -10.68,-54.88 c 0.178,1.61 3.221,27.979 7.341,56.443 0,0 1.22,-0.568 3.339,-1.563" /></g><g
           transform="translate(339.9873,178.0244)"
           id="g34"><path
             id="path36"
             style="fill:#0f3744;fill-opacity:1;fill-rule:nonzero;stroke:none"
             d="m 0,0 c 0.344,0.616 5.719,10.609 7.271,19.596 1.585,9.271 0,17.725 0,17.725 C 7.271,37.321 6.679,22.391 0,0 m -27.315,-57.958 c 6.998,20.294 13.498,41.358 18.589,59.651 0.012,0 0.012,0.012 0.012,0.012 0.308,1.137 0.615,2.25 0.923,3.363 l 0.012,0.012 c 2.463,9.023 4.571,17.299 6.18,24.356 0,0.011 0.013,0.011 0.013,0.023 0.971,3.339 1.729,6.927 2.332,10.668 4.512,0.036 6.82,2.522 9.39,0 C 12.74,37.569 43.763,7.839 44.745,5.554 l 0.983,-2.285 c -4.121,-28.465 -7.164,-54.833 -7.341,-56.444 l -0.012,-0.083 c 0,0 -31.495,-6.109 -33.271,-6.453 l -10.243,21.502 18.756,-52.962 c -19.466,-15.783 -42.602,-27.221 -67.94,-32.809 8.584,16.091 18.198,40.447 27.008,66.022" /></g><g
           transform="translate(378.3623,124.7666)"
           id="g38"><path
             id="path40"
             style="fill:#04272f;fill-opacity:1;fill-rule:nonzero;stroke:none"
             d="m 0,0 c 0,0 -3.754,-4.712 -13.226,-5.695 -8.951,-0.911 -18.957,-0.793 -20.034,-0.77 l -0.011,0.012 C -31.495,-6.109 0,0 0,0" /></g><g
           transform="translate(345.1025,118.3018)"
           id="g42"><path
             id="path44"
             style="fill:#04272f;fill-opacity:1;fill-rule:nonzero;stroke:none"
             d="m 0,0 13.119,-27.553 c -1.515,-1.338 -3.055,-2.628 -4.617,-3.895 L -10.254,21.514 -0.012,0.012 Z" /></g><g
           transform="translate(347.6602,322.8916)"
           id="g46"><path
             id="path48"
             style="fill:#70a2af;fill-opacity:1;fill-rule:nonzero;stroke:none"
             d="m 0,0 c 0.331,-13.854 4.416,-33.283 1.314,-37.238 -3.599,-4.571 -8.691,-3.185 -8.691,-3.185 -0.947,7.199 -2.486,16.375 -4.439,26.795 4.168,0.722 6.263,-13.486 6.712,-9.402 0.06,0.593 0.072,1.267 0.037,2.013 l 2.948,0.19 c 0,0 -0.083,12.704 -0.415,21.016 C -1.409,-0.012 -0.509,-0.106 0,0 m 1.065,-28.488 c 0.012,-0.533 -0.011,-4.026 -1.752,-6.465 -2.675,-3.741 -8.608,-3.718 -4.357,-3.351 5.589,0.486 6.583,4.05 6.109,9.816" /></g><g
           transform="translate(348.7256,294.4038)"
           id="g50"><path
             id="path52"
             style="fill:#f8fbfc;fill-opacity:1;fill-rule:nonzero;stroke:none"
             d="m 0,0 c 0.474,-5.767 -0.521,-9.331 -6.109,-9.816 -4.251,-0.367 1.681,-0.391 4.357,3.351 C -0.012,-4.026 0.012,-0.533 0,0" /></g><g
           transform="translate(347.79,328.4565)"
           id="g54"><path
             id="path56"
             style="fill:#426c78;fill-opacity:1;fill-rule:nonzero;stroke:none"
             d="m 0,0 c -0.142,-1.705 -0.178,-3.576 -0.13,-5.565 -0.509,-0.106 -1.409,-0.012 -2.534,0.19 -0.059,1.562 -0.118,2.959 -0.201,4.096 -0.486,7.223 -8.205,10.289 -13.013,1.906 -0.675,3.269 -1.385,6.607 -2.107,9.994 C -7.009,14.694 1.208,12.456 0.036,0.474 0.024,0.32 0.012,0.154 0,0" /></g><g
           transform="translate(347.2578,215.3457)"
           id="g58"><path
             id="path60"
             style="fill:#426c78;fill-opacity:1;fill-rule:nonzero;stroke:none"
             d="M 0,0 C 0,0 1.586,-8.454 0,-17.726 -1.552,-26.712 -6.927,-36.705 -7.271,-37.321 -0.592,-14.931 0,0 0,0" /></g><g
           transform="translate(345.541,302.0645)"
           id="g62"><path
             id="path64"
             style="fill:#70a2af;fill-opacity:1;fill-rule:nonzero;stroke:none"
             d="m 0,0 -2.948,-0.189 c -0.261,4.392 -2.463,10.81 -7.507,11.319 -0.723,3.753 -1.492,7.649 -2.31,11.651 1.28,0.343 3.292,0.118 5.448,-0.284 0.757,-0.604 1.527,-1.386 2.296,-2.404 C -0.864,14.575 0,0 0,0" /></g><g
           transform="translate(345.126,323.0811)"
           id="g66"><path
             id="path68"
             style="fill:#04272f;fill-opacity:1;fill-rule:nonzero;stroke:none"
             d="m 0,0 c 0.332,-8.312 0.415,-21.017 0.415,-21.017 0,0 -0.864,14.576 -5.02,20.093 -0.77,1.019 -1.54,1.8 -2.297,2.404 C -4.499,1.03 -1.918,0.367 0,0" /></g><g
           transform="translate(344.9248,327.1777)"
           id="g70"><path
             id="path72"
             style="fill:#04272f;fill-opacity:1;fill-rule:nonzero;stroke:none"
             d="m 0,0 c 0.083,-1.137 0.143,-2.534 0.201,-4.097 -1.918,0.368 -4.499,1.031 -6.902,1.48 -2.523,2.037 -4.808,2.12 -5.802,2.025 -0.166,0.829 -0.344,1.657 -0.51,2.498 C -8.205,10.289 -0.485,7.223 0,0" /></g><g
           transform="translate(342.5928,301.875)"
           id="g74"><path
             id="path76"
             style="fill:#04272f;fill-opacity:1;fill-rule:nonzero;stroke:none"
             d="M 0,0 C 0.035,-0.746 0.023,-1.421 -0.036,-2.013 -0.485,-6.098 -2.581,8.11 -6.749,7.388 -6.998,8.679 -7.247,9.993 -7.507,11.319 -2.463,10.81 -0.261,4.393 0,0" /></g><g
           transform="translate(335.8437,309.2632)"
           id="g78"><path
             id="path80"
             style="fill:#f8fbfc;fill-opacity:1;fill-rule:nonzero;stroke:none"
             d="m 0,0 c 1.953,-10.419 3.492,-19.596 4.439,-26.794 0.379,-2.854 0.664,-5.4 0.841,-7.59 0.865,-10.372 2.925,-35.818 -0.39,-56.728 H 4.795 c -0.58,-3.126 -1.338,-6.701 -2.237,-10.668 0,-0.012 -0.013,-0.012 -0.013,-0.023 -1.066,-3.635 -2.367,-6.962 -3.978,-9.84 3.576,9.307 5.743,29.565 5.553,54.395 -0.178,24.817 -7.329,53.885 -9.283,67.774 -1.089,7.684 -2.179,15.12 -3.043,21.846 1.007,0.189 1.575,0.236 1.575,0.236 0.19,-0.935 0.391,-1.87 0.592,-2.794 0.723,-3.386 1.433,-6.725 2.107,-9.993 0.166,-0.841 0.344,-1.67 0.51,-2.498 0.118,-0.581 0.236,-1.161 0.355,-1.741 C -2.25,11.58 -1.48,7.685 -0.758,3.931 -0.498,2.605 -0.249,1.291 0,0" /></g><g
           transform="translate(311.4053,303.4614)"
           id="g82"><path
             id="path84"
             style="fill:#70a2af;fill-opacity:1;fill-rule:nonzero;stroke:none"
             d="m 0,0 c 4.416,0.651 3.884,5.388 3.884,5.388 0,0 -5.353,-4.251 -11.723,-3.434 0,0 3.434,-2.617 7.839,-1.954 m -40.151,15.321 c 6.193,-7.494 9.614,-11.579 4.38,-17.618 l 3.92,0.983 c 0,0 20.259,-20.247 31.366,-41.477 2.556,-4.89 4.534,-8.892 6.049,-12.16 3.209,-7.933 5.116,-13.652 5.116,-13.652 0,0 -0.035,2.712 -5.116,13.652 -4.262,10.526 -10.786,24.924 -18.139,35.059 -12.905,17.761 -13.557,18.91 -16.659,23.48 -3.007,4.428 -10.455,11.308 -10.917,11.733 m 61.037,-76.452 c -0.331,0.97 -8.194,23.467 -14.185,33.282 -6.014,9.852 -19.323,19.703 -19.832,20.07 0.509,-0.651 17.015,-21.467 25.468,-37.297 7.507,-14.079 8.442,-15.842 8.549,-16.055 M -0.012,13.214 c -0.332,-0.26 -6.015,-4.464 -16.15,-1.456 -6.737,2.001 -10.231,4.819 -11.853,6.559 0.829,-0.236 1.705,-0.438 2.618,-0.604 C -8.241,14.528 1.8,33.153 7.672,35.592 9.389,31.069 6.571,27.387 6.334,24.332 c -0.248,-3.066 4.038,3.789 4.346,12.397 2.38,0.793 4.309,1.231 5.552,1.444 0.865,-6.725 1.955,-14.161 3.043,-21.845 1.954,-13.889 9.106,-42.957 9.284,-67.774 0.189,-24.83 -1.978,-45.089 -5.553,-54.395 -0.936,-1.693 -1.989,-3.233 -3.138,-4.594 -2.167,-2.51 -4.701,-4.381 -7.684,-5.435 -31.07,-10.917 -29.981,-24.426 -73.588,-24.426 v 6.121 c 17.641,0 26.451,1.231 38.765,6.133 12.314,4.902 21.585,11.26 21.585,11.26 -13.226,-0.899 -21.395,-7.103 -34.384,-6.95 -12.99,0.143 -11.273,6.95 -25.966,6.95 v 71.706 c 11.271,0 19.926,4.57 19.926,4.57 0,0 -6.867,3.588 -19.926,3.588 v 9.555 c 10.289,0 21.798,3.682 29.399,-1.468 7.59,-5.139 10.443,-9.39 11.758,-8.904 1.302,0.497 2.119,4.582 0,4.582 h -2.132 c 0,0 -8.975,8.158 -15.83,10.941 -6.867,2.77 -15.688,2.285 -15.688,2.285 0,0 -1.469,-2.451 -7.507,-2.451 v 13.226 c 8.323,0 8.406,5.387 13.474,5.067 5.056,-0.332 6.939,-1.468 8.407,-0.817 1.467,0.652 1.314,7.022 -4.405,6.856 -5.719,-0.166 -6.868,-4.985 -17.476,-4.985 v 38.623 c 11.284,0 15.996,-7.152 23.657,-12.562 6.725,-8.513 15.06,-15.523 24.841,-15.038 9.496,0.486 12.705,4.938 12.894,5.222 m -25.126,-68.757 c 0.143,-0.095 2.664,-1.859 10.397,-14.446 7.968,-12.976 18.625,-27.184 18.625,-27.184 0,0 -14.813,34.514 -29.022,41.63" /></g><g
           transform="translate(338.2236,324.561)"
           id="g86"><path
             id="path88"
             style="fill:#426c78;fill-opacity:1;fill-rule:nonzero;stroke:none"
             d="M 0,0 C -2.155,0.402 -4.168,0.627 -5.447,0.284 -5.565,0.864 -5.684,1.444 -5.802,2.025 -4.808,2.12 -2.522,2.037 0,0" /></g><g
           transform="translate(334.4111,197.6201)"
           id="g90"><path
             id="path92"
             style="fill:#04272f;fill-opacity:1;fill-rule:nonzero;stroke:none"
             d="M 0,0 C 1.61,2.878 2.912,6.205 3.978,9.84 2.368,2.783 0.26,-5.493 -2.203,-14.516 l -0.012,-0.011 C -29.814,-38.54 -59.226,-47.16 -60.138,-47.42 c 1.243,0.828 48.83,32.466 57,42.826 C -1.989,-3.232 -0.936,-1.692 0,0" /></g><g
           transform="translate(332.291,242.3301)"
           id="g94"><path
             id="path96"
             style="fill:#426c78;fill-opacity:1;fill-rule:nonzero;stroke:none"
             d="m 0,0 c -0.106,0.213 -1.042,1.977 -8.549,16.055 -8.453,15.831 -24.959,36.646 -25.468,37.298 0.509,-0.368 13.818,-10.219 19.832,-20.07 C -8.193,23.467 -0.331,0.971 0,0" /></g><g
           transform="translate(274.2734,150.2002)"
           id="g98"><path
             id="path100"
             style="fill:#426c78;fill-opacity:1;fill-rule:nonzero;stroke:none"
             d="M 0,0 C 0.912,0.26 30.323,8.88 57.923,32.893 57.615,31.779 57.308,30.666 57,29.529 c 0,0 0,-0.011 -0.012,-0.011 C 43.028,10.632 -9.413,-9.401 -9.413,-9.401 h -14.859 v 6.523 c 15.025,0 18.944,5.068 18.944,5.068 0,0 -7.022,-0.166 -18.944,0 v 10.775 c 43.607,0 42.518,13.51 73.587,24.427 2.984,1.053 5.518,2.924 7.685,5.434 C 48.83,32.466 1.243,0.828 0,0" /></g><g
           transform="translate(329.2129,341.8716)"
           id="g102"><path
             id="path104"
             style="fill:#70a2af;fill-opacity:1;fill-rule:nonzero;stroke:none"
             d="M 0,0 C 0,0 -0.568,-0.047 -1.575,-0.237 -2.285,5.174 -2.854,10.112 -3.173,14.339 -2.084,9.508 -1.019,4.712 0,0" /></g><g
           transform="translate(283.3906,321.7783)"
           id="g106"><path
             id="path108"
             style="fill:#04272f;fill-opacity:1;fill-rule:nonzero;stroke:none"
             d="m 0,0 c -3.907,1.078 -7.01,2.783 -9.732,4.713 -7.662,5.411 -12.373,12.562 -23.658,12.562 v 7.531 c 37.759,0 55.271,7.625 75.53,11.9 0.166,-0.747 0.343,-1.504 0.509,-2.25 v -0.024 c 0.32,-4.227 0.888,-9.164 1.598,-14.576 -1.243,-0.212 -3.173,-0.651 -5.553,-1.444 -0.935,-0.32 -1.941,-0.687 -3.007,-1.137 C 29.814,14.836 19.773,-3.789 2.617,-0.604 1.705,-0.438 0.829,-0.236 0,0" /></g><g
           transform="translate(316.9697,248.5107)"
           id="g110"><path
             id="path112"
             style="fill:#70a2af;fill-opacity:1;fill-rule:nonzero;stroke:none"
             d="M 0,0 C 5.08,-10.94 5.115,-13.652 5.115,-13.652 5.115,-13.652 3.209,-7.934 0,0" /></g><g
           transform="translate(319.0771,339.0537)"
           id="g114"><path
             id="path116"
             style="fill:#04272f;fill-opacity:1;fill-rule:nonzero;stroke:none"
             d="M 0,0 C 1.066,0.45 2.072,0.817 3.008,1.137 2.7,-7.471 -1.586,-14.327 -1.338,-11.26 -1.101,-8.206 1.717,-4.523 0,0" /></g><g
           transform="translate(331.2617,179.7178)"
           id="g118"><path
             id="path120"
             style="fill:#f8fbfc;fill-opacity:1;fill-rule:nonzero;stroke:none"
             d="m 0,0 c -5.092,-18.293 -11.592,-39.357 -18.59,-59.651 l -1.728,-1.765 v -0.012 l -0.024,-0.011 -21.964,-22.473 c -3.019,11.567 -7.839,21.442 -12.374,28.961 -6.109,10.159 -11.721,16.032 -11.721,16.032 0,0 52.441,20.033 66.401,38.919" /></g><g
           transform="translate(298.8301,283.5698)"
           id="g122"><path
             id="path124"
             style="fill:#04272f;fill-opacity:1;fill-rule:nonzero;stroke:none"
             d="m 0,0 c 7.354,-10.135 13.877,-24.533 18.14,-35.059 -1.516,3.267 -3.494,7.269 -6.05,12.16 -11.107,21.23 -31.365,41.477 -31.365,41.477 l -3.92,-0.983 c 5.233,6.038 1.812,10.123 -4.381,17.618 0.462,-0.426 7.91,-7.305 10.917,-11.734 C -13.557,18.909 -12.905,17.76 0,0" /></g><g
           transform="translate(315.2891,308.8491)"
           id="g126"><path
             id="path128"
             style="fill:#426c78;fill-opacity:1;fill-rule:nonzero;stroke:none"
             d="m 0,0 c 0,0 0.532,-4.736 -3.884,-5.388 -4.405,-0.663 -7.839,1.954 -7.839,1.954 C -5.353,-4.251 0,0 0,0" /></g><g
           transform="translate(310.9434,118.3018)"
           id="g130"><path
             id="path132"
             style="fill:#04272f;fill-opacity:1;fill-rule:nonzero;stroke:none"
             d="m 0,0 1.729,1.765 c -8.81,-25.576 -18.424,-49.931 -27.008,-66.023 -1.362,-0.296 -2.736,-0.58 -4.109,-0.852 1.907,3.966 9.993,20.59 16.944,34.396 7.838,15.547 12.29,30.217 12.444,30.702 z" /></g><g
           transform="translate(310.9199,118.2783)"
           id="g134"><path
             id="path136"
             style="fill:#f8fbfc;fill-opacity:1;fill-rule:nonzero;stroke:none"
             d="m 0,0 0.023,0.012 c -0.154,-0.486 -4.606,-15.156 -12.444,-30.702 -6.95,-13.806 -15.037,-30.43 -16.943,-34.397 -1.647,-0.319 -3.304,-0.615 -4.974,-0.876 -1.35,23.149 -8.182,46.663 -14.48,54.62 -2.629,5.53 -4.795,8.951 -4.795,8.951 l 3.374,1.551 15.404,3.967 c 0,0 6.37,-10.289 8.703,-19.11 2.32,-8.822 1.717,-14.706 1.717,-14.706 z" /></g><g
           transform="translate(310.9199,118.2783)"
           id="g138"><path
             id="path140"
             style="fill:#426c78;fill-opacity:1;fill-rule:nonzero;stroke:none"
             d="m 0,0 -24.415,-30.69 c 0,0 0.603,5.884 -1.717,14.706 -2.333,8.821 -8.703,19.11 -8.703,19.11 l -15.404,-3.967 15.901,7.329 c 4.535,-7.518 9.355,-17.393 12.374,-28.961 z" /></g><g
           transform="translate(315.2891,206.2881)"
           id="g142"><path
             id="path144"
             style="fill:#426c78;fill-opacity:1;fill-rule:nonzero;stroke:none"
             d="M 0,0 C 0,0 -10.657,14.208 -18.625,27.185 -26.357,39.771 -28.879,41.535 -29.021,41.63 -14.813,34.515 0,0 0,0" /></g><g
           transform="translate(311.3936,316.6753)"
           id="g146"><path
             id="path148"
             style="fill:#04272f;fill-opacity:1;fill-rule:nonzero;stroke:none"
             d="m 0,0 c -0.189,-0.284 -3.398,-4.736 -12.895,-5.222 -9.78,-0.485 -18.116,6.525 -24.84,15.038 2.722,-1.93 5.825,-3.635 9.732,-4.713 1.622,-1.74 5.115,-4.558 11.853,-6.559 C -6.016,-4.464 -0.332,-0.26 0,0" /></g><g
           transform="translate(310.3516,186.6797)"
           id="g150"><path
             id="path152"
             style="fill:#426c78;fill-opacity:1;fill-rule:nonzero;stroke:none"
             d="m 0,0 c 0,0 -9.271,-6.358 -21.585,-11.26 -12.314,-4.902 -21.124,-6.134 -38.766,-6.134 V 0 c 14.694,0 12.977,-6.808 25.966,-6.95 C -21.396,-7.104 -13.227,-0.899 0,0" /></g><g
           transform="translate(291.1582,270.3086)"
           id="g154"><path
             id="path156"
             style="fill:#04272f;fill-opacity:1;fill-rule:nonzero;stroke:none"
             d="m 0,0 c 2.119,0 1.302,-4.085 0,-4.583 -1.314,-0.485 -4.168,3.766 -11.758,8.905 -7.601,5.15 -19.11,1.468 -29.399,1.468 v 4.984 c 6.038,0 7.507,2.452 7.507,2.452 0,0 8.821,0.485 15.688,-2.286 C -11.106,8.158 -2.132,0 -2.132,0 Z" /></g><g
           transform="translate(276.582,124.7666)"
           id="g158"><path
             id="path160"
             style="fill:#04272f;fill-opacity:1;fill-rule:nonzero;stroke:none"
             d="m 0,0 -15.901,-7.329 -3.374,-1.551 h -7.306 v 24.912 h 14.859 c 0,0 5.613,-5.873 11.722,-16.032" /></g><g
           transform="translate(276.582,52.3154)"
           id="g162"><path
             id="path164"
             style="fill:#426c78;fill-opacity:1;fill-rule:nonzero;stroke:none"
             d="M 0,0 C -1.207,-0.201 -2.415,-0.391 -3.623,-0.557 -3.859,4.512 -4.677,20.437 -6.003,28.547 -7.672,38.766 -11.402,48.143 -14.48,54.62 -8.182,46.663 -1.35,23.148 0,0" /></g><g
           transform="translate(265.4521,94.5029)"
           id="g166"><path
             id="path168"
             style="fill:#04272f;fill-opacity:1;fill-rule:nonzero;stroke:none"
             d="m 0,0 c 0.166,-1.125 3.86,-25.208 1.291,-43.49 -5.506,-0.556 -11.095,-0.84 -16.742,-0.84 v 65.714 h 7.305 c 0,0 2.167,-3.422 4.795,-8.951 3.079,-6.478 6.809,-15.855 8.478,-26.074 1.326,-8.11 2.144,-24.035 2.38,-29.103 -0.864,-0.118 -1.717,-0.236 -2.581,-0.331 0,0 1.527,27.185 -4.926,43.075" /></g><g
           transform="translate(267.4775,305.415)"
           id="g170"><path
             id="path172"
             style="fill:#04272f;fill-opacity:1;fill-rule:nonzero;stroke:none"
             d="m 0,0 c 5.719,0.166 5.872,-6.204 4.404,-6.855 -1.467,-0.652 -3.35,0.485 -8.406,0.816 -5.068,0.32 -5.151,-5.067 -13.475,-5.067 v 6.121 C -6.868,-4.985 -5.72,-0.166 0,0" /></g><g
           transform="translate(265.4521,94.5029)"
           id="g174"><path
             id="path176"
             style="fill:#0f3744;fill-opacity:1;fill-rule:nonzero;stroke:none"
             d="M 0,0 C 6.453,-15.89 4.926,-43.075 4.926,-43.075 3.718,-43.229 2.511,-43.371 1.291,-43.49 3.86,-25.208 0.166,-1.125 0,0" /></g><g
           transform="translate(268.9453,152.3906)"
           id="g178"><path
             id="path180"
             style="fill:#04272f;fill-opacity:1;fill-rule:nonzero;stroke:none"
             d="M 0,0 C 0,0 -3.919,-5.068 -18.944,-5.068 V 0 C -7.021,-0.166 0,0 0,0" /></g><g
           transform="translate(250.001,266.5435)"
           id="g182"><path
             id="path184"
             style="fill:#04272f;fill-opacity:1;fill-rule:nonzero;stroke:none"
             d="m 0,0 c 13.06,0 19.927,-3.588 19.927,-3.588 0,0 -8.656,-4.57 -19.927,-4.57 z" /></g><g
           transform="translate(85.3828,214.8008)"
           id="g186"><path
             id="path188"
             style="fill:#ff6564;fill-opacity:1;fill-rule:nonzero;stroke:none"
             d="m 0,0 c 0,-15.333 2.096,-30.181 6.026,-44.271 8.312,3.908 15.535,7.305 19.537,9.188 v 0.012 c 2.12,0.995 3.339,1.563 3.339,1.563 l 0.983,2.285 c 0.983,2.286 32.005,32.016 34.609,34.574 2.569,2.522 4.878,0.036 9.39,0 -3.316,20.91 -1.255,46.355 -0.391,56.727 0.178,2.191 0.462,4.736 0.841,7.59 0,0 -5.092,-1.386 -8.691,3.185 -3.102,3.955 0.983,23.384 1.314,37.238 0.048,1.989 0.012,3.86 -0.13,5.565 -5.778,0.864 -12.018,1.977 -17.95,3.386 C 18.708,87.216 0,45.787 0,0" /></g><g
           transform="translate(110.9458,179.7178)"
           id="g190"><path
             id="path192"
             style="fill:#0f3744;fill-opacity:1;fill-rule:nonzero;stroke:none"
             d="m 0,0 c -4.002,-1.883 -11.225,-5.28 -19.537,-9.188 8.727,-31.365 26.523,-58.965 50.37,-79.781 l 13.119,27.553 c -1.077,-0.023 -11.083,-0.142 -20.035,0.77 -9.472,0.983 -13.225,5.695 -13.225,5.695 l -0.012,0.083 z" /></g><g
           transform="translate(110.9458,179.7295)"
           id="g194"><path
             id="path196"
             style="fill:#04272f;fill-opacity:1;fill-rule:nonzero;stroke:none"
             d="M 0,0 V -0.012 L 10.68,-54.88 C 10.502,-53.27 7.459,-26.901 3.339,1.563 3.339,1.563 2.12,0.995 0,0" /></g><g
           transform="translate(187.3281,120.0664)"
           id="g198"><path
             id="path200"
             style="fill:#0f3744;fill-opacity:1;fill-rule:nonzero;stroke:none"
             d="m 0,0 c -6.998,20.294 -13.498,41.358 -18.59,59.651 -0.012,0 -0.012,0.012 -0.012,0.012 -0.307,1.137 -0.615,2.25 -0.922,3.363 l -0.012,0.012 c -2.463,9.023 -4.571,17.299 -6.181,24.356 0,0.011 -0.012,0.011 -0.012,0.023 -0.971,3.339 -1.729,6.927 -2.333,10.668 -4.511,0.036 -6.82,2.522 -9.389,0 -2.605,-2.558 -33.627,-32.288 -34.61,-34.573 l -0.982,-2.285 c 4.12,-28.465 7.163,-54.833 7.341,-56.444 L -65.69,4.7 c 0,0 31.495,-6.109 33.271,-6.453 l 10.242,21.502 -18.756,-52.962 C -21.467,-48.996 1.67,-60.434 27.008,-66.022 18.424,-49.931 8.81,-25.575 0,0 m -27.315,57.958 c -0.344,0.616 -5.719,10.609 -7.271,19.596 -1.586,9.271 0,17.725 0,17.725 0,0 0.592,-14.93 7.271,-37.321" /></g><g
           transform="translate(121.6377,124.7666)"
           id="g202"><path
             id="path204"
             style="fill:#04272f;fill-opacity:1;fill-rule:nonzero;stroke:none"
             d="m 0,0 c 0,0 3.753,-4.712 13.226,-5.695 8.951,-0.911 18.957,-0.793 20.034,-0.77 l 0.011,0.012 C 31.495,-6.109 0,0 0,0" /></g><g
           transform="translate(154.8975,118.3018)"
           id="g206"><path
             id="path208"
             style="fill:#04272f;fill-opacity:1;fill-rule:nonzero;stroke:none"
             d="m 0,0 -13.119,-27.553 c 1.515,-1.338 3.055,-2.628 4.617,-3.895 L 10.254,21.514 0.012,0.012 Z" /></g><g
           transform="translate(152.3398,322.8916)"
           id="g210"><path
             id="path212"
             style="fill:#70a2af;fill-opacity:1;fill-rule:nonzero;stroke:none"
             d="m 0,0 c -0.331,-13.854 -4.416,-33.283 -1.314,-37.238 3.599,-4.571 8.691,-3.185 8.691,-3.185 0.947,7.199 2.486,16.375 4.439,26.795 -4.168,0.722 -6.263,-13.486 -6.712,-9.402 -0.06,0.593 -0.072,1.267 -0.037,2.013 l -2.948,0.19 c 0,0 0.083,12.704 0.415,21.016 C 1.409,-0.012 0.509,-0.106 0,0 m -1.065,-28.488 c -0.012,-0.533 0.011,-4.026 1.752,-6.465 2.675,-3.741 8.608,-3.718 4.357,-3.351 -5.589,0.486 -6.583,4.05 -6.109,9.816" /></g><g
           transform="translate(151.2744,294.4038)"
           id="g214"><path
             id="path216"
             style="fill:#f8fbfc;fill-opacity:1;fill-rule:nonzero;stroke:none"
             d="M 0,0 C -0.474,-5.767 0.521,-9.331 6.109,-9.816 10.36,-10.183 4.428,-10.207 1.752,-6.465 0.012,-4.026 -0.012,-0.533 0,0" /></g><g
           transform="translate(152.21,328.4565)"
           id="g218"><path
             id="path220"
             style="fill:#426c78;fill-opacity:1;fill-rule:nonzero;stroke:none"
             d="m 0,0 c 0.142,-1.705 0.178,-3.576 0.13,-5.565 0.509,-0.106 1.409,-0.012 2.534,0.19 0.059,1.562 0.118,2.959 0.201,4.096 0.486,7.223 8.205,10.289 13.013,1.906 0.675,3.269 1.385,6.607 2.107,9.994 C 7.009,14.694 -1.208,12.456 -0.036,0.474 -0.024,0.32 -0.012,0.154 0,0" /></g><g
           transform="translate(152.7422,215.3457)"
           id="g222"><path
             id="path224"
             style="fill:#426c78;fill-opacity:1;fill-rule:nonzero;stroke:none"
             d="M 0,0 C 0,0 -1.586,-8.454 0,-17.726 1.552,-26.712 6.927,-36.705 7.271,-37.321 0.592,-14.931 0,0 0,0" /></g><g
           transform="translate(154.459,302.0645)"
           id="g226"><path
             id="path228"
             style="fill:#70a2af;fill-opacity:1;fill-rule:nonzero;stroke:none"
             d="m 0,0 2.948,-0.189 c 0.261,4.392 2.463,10.81 7.507,11.319 0.723,3.753 1.492,7.649 2.31,11.651 -1.28,0.343 -3.292,0.118 -5.448,-0.284 C 6.56,21.893 5.79,21.111 5.021,20.093 0.864,14.575 0,0 0,0" /></g><g
           transform="translate(154.874,323.0811)"
           id="g230"><path
             id="path232"
             style="fill:#04272f;fill-opacity:1;fill-rule:nonzero;stroke:none"
             d="m 0,0 c -0.332,-8.312 -0.415,-21.017 -0.415,-21.017 0,0 0.864,14.576 5.02,20.093 0.77,1.019 1.54,1.8 2.297,2.404 C 4.499,1.03 1.918,0.367 0,0" /></g><g
           transform="translate(155.0752,327.1777)"
           id="g234"><path
             id="path236"
             style="fill:#04272f;fill-opacity:1;fill-rule:nonzero;stroke:none"
             d="m 0,0 c -0.083,-1.137 -0.143,-2.534 -0.201,-4.097 1.918,0.368 4.499,1.031 6.902,1.48 2.523,2.037 4.808,2.12 5.802,2.025 0.166,0.829 0.344,1.657 0.51,2.498 C 8.205,10.289 0.485,7.223 0,0" /></g><g
           transform="translate(157.4072,301.875)"
           id="g238"><path
             id="path240"
             style="fill:#04272f;fill-opacity:1;fill-rule:nonzero;stroke:none"
             d="M 0,0 C -0.035,-0.746 -0.023,-1.421 0.036,-2.013 0.485,-6.098 2.581,8.11 6.749,7.388 6.998,8.679 7.247,9.993 7.507,11.319 2.463,10.81 0.261,4.393 0,0" /></g><g
           transform="translate(167.5781,326.5859)"
           id="g242"><path
             id="path244"
             style="fill:#f8fbfc;fill-opacity:1;fill-rule:nonzero;stroke:none"
             d="m 0,0 c -0.118,-0.581 -0.236,-1.161 -0.354,-1.741 -0.818,-4.002 -1.587,-7.897 -2.31,-11.651 -0.26,-1.326 -0.509,-2.64 -0.758,-3.931 -1.953,-10.419 -3.492,-19.595 -4.439,-26.794 -0.379,-2.854 -0.663,-5.4 -0.841,-7.59 -0.864,-10.372 -2.925,-35.817 0.39,-56.728 h 0.095 c 0.58,-3.126 1.338,-6.701 2.238,-10.668 0,-0.011 0.012,-0.011 0.012,-0.023 1.066,-3.635 2.367,-6.962 3.978,-9.84 -3.575,9.307 -5.742,29.566 -5.553,54.395 0.178,24.818 7.329,53.885 9.283,67.775 C 2.83,0.888 3.92,8.324 4.784,15.049 3.777,15.238 3.209,15.286 3.209,15.286 3.02,14.35 2.818,13.415 2.617,12.491 1.895,9.105 1.185,5.766 0.51,2.498 0.344,1.657 0.166,0.829 0,0" /></g><g
           transform="translate(188.5947,303.4614)"
           id="g246"><path
             id="path248"
             style="fill:#70a2af;fill-opacity:1;fill-rule:nonzero;stroke:none"
             d="m 0,0 c -4.416,0.651 -3.884,5.388 -3.884,5.388 0,0 5.353,-4.251 11.723,-3.434 C 7.839,1.954 4.405,-0.663 0,0 M 40.151,15.321 C 33.958,7.827 30.537,3.742 35.771,-2.297 l -3.92,0.983 c 0,0 -20.259,-20.247 -31.366,-41.477 -2.556,-4.89 -4.534,-8.892 -6.049,-12.16 -3.209,-7.933 -5.116,-13.652 -5.116,-13.652 0,0 0.035,2.712 5.116,13.652 4.262,10.526 10.786,24.924 18.139,35.059 12.905,17.761 13.557,18.91 16.659,23.48 3.007,4.428 10.455,11.308 10.917,11.733 M 0.012,13.214 c 0.332,-0.26 6.015,-4.464 16.15,-1.456 6.737,2.001 10.231,4.819 11.853,6.559 C 27.186,18.081 26.31,17.879 25.397,17.713 8.241,14.528 -1.8,33.153 -7.672,35.592 c -1.717,-4.523 1.101,-8.205 1.338,-11.26 0.248,-3.066 -4.038,3.789 -4.346,12.397 -2.38,0.793 -4.309,1.231 -5.552,1.444 -0.865,-6.725 -1.955,-14.161 -3.043,-21.845 -1.954,-13.889 -9.106,-42.957 -9.284,-67.774 -0.189,-24.83 1.978,-45.089 5.553,-54.395 0.936,-1.693 1.989,-3.233 3.138,-4.594 2.167,-2.51 4.701,-4.381 7.684,-5.435 31.07,-10.917 29.981,-24.426 73.588,-24.426 v 6.121 c -17.641,0 -26.451,1.231 -38.765,6.133 -12.314,4.902 -21.585,11.26 -21.585,11.26 13.226,-0.899 21.395,-7.103 34.384,-6.95 12.99,0.143 11.273,6.95 25.966,6.95 v 71.706 c -11.271,0 -19.926,4.57 -19.926,4.57 0,0 6.867,3.588 19.926,3.588 v 9.555 c -10.289,0 -21.798,3.682 -29.399,-1.468 -7.59,-5.139 -10.443,-9.39 -11.758,-8.904 -1.302,0.497 -2.119,4.582 0,4.582 h 2.132 c 0,0 8.975,8.158 15.83,10.941 6.867,2.77 15.688,2.285 15.688,2.285 0,0 1.469,-2.451 7.507,-2.451 v 13.226 c -8.323,0 -8.406,5.387 -13.474,5.067 -5.056,-0.332 -6.939,-1.468 -8.407,-0.817 -1.467,0.652 -1.314,7.022 4.405,6.856 5.719,-0.166 6.868,-4.985 17.476,-4.985 V 35.592 C 50.12,35.592 45.408,28.44 37.747,23.03 31.022,14.517 22.687,7.507 12.906,7.992 3.41,8.478 0.201,12.93 0.012,13.214 M 13.131,-7.779 c -0.509,-0.651 -17.015,-21.467 -25.468,-37.297 -7.507,-14.079 -8.442,-15.842 -8.549,-16.055 0.331,0.97 8.194,23.467 14.185,33.282 6.014,9.852 19.323,19.703 19.832,20.07 m 12.007,-47.764 c -0.143,-0.095 -2.664,-1.859 -10.397,-14.446 -7.968,-12.976 -18.625,-27.184 -18.625,-27.184 0,0 14.813,34.514 29.022,41.63" /></g><g
           transform="translate(161.7764,324.561)"
           id="g250"><path
             id="path252"
             style="fill:#426c78;fill-opacity:1;fill-rule:nonzero;stroke:none"
             d="M 0,0 C 2.155,0.402 4.168,0.627 5.447,0.284 5.565,0.864 5.684,1.444 5.802,2.025 4.808,2.12 2.522,2.037 0,0" /></g><g
           transform="translate(165.5889,197.6201)"
           id="g254"><path
             id="path256"
             style="fill:#04272f;fill-opacity:1;fill-rule:nonzero;stroke:none"
             d="m 0,0 c -1.61,2.878 -2.912,6.205 -3.978,9.84 1.61,-7.057 3.718,-15.333 6.181,-24.356 l 0.012,-0.011 C 29.814,-38.54 59.226,-47.16 60.138,-47.42 c -1.243,0.828 -48.83,32.466 -57,42.826 C 1.989,-3.232 0.936,-1.692 0,0" /></g><g
           transform="translate(167.709,242.3301)"
           id="g258"><path
             id="path260"
             style="fill:#426c78;fill-opacity:1;fill-rule:nonzero;stroke:none"
             d="M 0,0 C 0.106,0.213 1.042,1.977 8.549,16.055 17.002,31.886 33.508,52.701 34.017,53.353 33.508,52.985 20.199,43.134 14.185,33.283 8.193,23.467 0.331,0.971 0,0" /></g><g
           transform="translate(225.7266,150.2002)"
           id="g262"><path
             id="path264"
             style="fill:#426c78;fill-opacity:1;fill-rule:nonzero;stroke:none"
             d="m 0,0 c -0.912,0.26 -30.323,8.88 -57.923,32.893 0.308,-1.114 0.615,-2.227 0.923,-3.364 0,0 0,-0.011 0.012,-0.011 C -43.028,10.632 9.413,-9.401 9.413,-9.401 h 14.859 v 6.523 C 9.247,-2.878 5.328,2.19 5.328,2.19 c 0,0 7.022,-0.166 18.944,0 v 10.775 c -43.607,0 -42.518,13.51 -73.587,24.427 -2.984,1.053 -5.518,2.924 -7.685,5.434 C -48.83,32.466 -1.243,0.828 0,0" /></g><g
           transform="translate(170.7871,341.8716)"
           id="g266"><path
             id="path268"
             style="fill:#70a2af;fill-opacity:1;fill-rule:nonzero;stroke:none"
             d="M 0,0 C 0,0 0.568,-0.047 1.575,-0.237 2.285,5.174 2.854,10.112 3.173,14.339 2.084,9.508 1.019,4.712 0,0" /></g><g
           transform="translate(226.3418,326.4912)"
           id="g270"><path
             id="path272"
             style="fill:#04272f;fill-opacity:1;fill-rule:nonzero;stroke:none"
             d="m 0,0 c 7.661,5.411 12.373,12.563 23.657,12.563 v 7.53 c -37.759,0 -55.27,7.625 -75.529,11.9 -0.166,-0.746 -0.344,-1.504 -0.51,-2.25 v -0.024 c -0.319,-4.227 -0.888,-9.164 -1.597,-14.575 1.243,-0.213 3.172,-0.652 5.552,-1.445 0.936,-0.32 1.942,-0.687 3.008,-1.136 5.872,-2.439 15.913,-21.064 33.069,-17.879 0.912,0.165 1.788,0.367 2.618,0.603 C -5.825,-3.635 -2.723,-1.93 0,0" /></g><g
           transform="translate(183.0303,248.5107)"
           id="g274"><path
             id="path276"
             style="fill:#70a2af;fill-opacity:1;fill-rule:nonzero;stroke:none"
             d="m 0,0 c -5.08,-10.94 -5.115,-13.652 -5.115,-13.652 0,0 1.906,5.718 5.115,13.652" /></g><g
           transform="translate(180.9229,339.0537)"
           id="g278"><path
             id="path280"
             style="fill:#04272f;fill-opacity:1;fill-rule:nonzero;stroke:none"
             d="M 0,0 C -1.066,0.45 -2.072,0.817 -3.008,1.137 -2.7,-7.471 1.586,-14.327 1.338,-11.26 1.101,-8.206 -1.717,-4.523 0,0" /></g><g
           transform="translate(168.7383,179.7178)"
           id="g282"><path
             id="path284"
             style="fill:#f8fbfc;fill-opacity:1;fill-rule:nonzero;stroke:none"
             d="m 0,0 c 5.092,-18.293 11.592,-39.357 18.59,-59.651 l 1.728,-1.765 v -0.012 l 0.024,-0.011 21.964,-22.473 c 3.019,11.567 7.839,21.442 12.374,28.961 6.109,10.159 11.721,16.032 11.721,16.032 0,0 -52.441,20.033 -66.401,38.919" /></g><g
           transform="translate(201.1699,283.5698)"
           id="g286"><path
             id="path288"
             style="fill:#04272f;fill-opacity:1;fill-rule:nonzero;stroke:none"
             d="m 0,0 c -7.354,-10.135 -13.877,-24.533 -18.14,-35.059 1.516,3.267 3.494,7.269 6.05,12.16 11.107,21.23 31.365,41.477 31.365,41.477 l 3.92,-0.983 C 17.962,23.633 21.383,27.718 27.576,35.213 27.114,34.787 19.666,27.908 16.659,23.479 13.557,18.909 12.905,17.76 0,0" /></g><g
           transform="translate(184.7109,308.8491)"
           id="g290"><path
             id="path292"
             style="fill:#426c78;fill-opacity:1;fill-rule:nonzero;stroke:none"
             d="m 0,0 c 0,0 -0.532,-4.736 3.884,-5.388 4.405,-0.663 7.839,1.954 7.839,1.954 C 5.353,-4.251 0,0 0,0" /></g><g
           transform="translate(189.0566,118.3018)"
           id="g294"><path
             id="path296"
             style="fill:#04272f;fill-opacity:1;fill-rule:nonzero;stroke:none"
             d="m 0,0 -1.729,1.765 c 8.81,-25.576 18.424,-49.931 27.008,-66.023 1.362,-0.296 2.736,-0.58 4.109,-0.852 -1.907,3.966 -9.993,20.59 -16.944,34.396 C 4.606,-15.167 0.154,-0.497 0,-0.012 Z" /></g><g
           transform="translate(189.0801,118.2783)"
           id="g298"><path
             id="path300"
             style="fill:#f8fbfc;fill-opacity:1;fill-rule:nonzero;stroke:none"
             d="m 0,0 -0.023,0.012 c 0.154,-0.486 4.606,-15.156 12.444,-30.702 6.95,-13.806 15.037,-30.43 16.943,-34.397 1.647,-0.319 3.304,-0.615 4.974,-0.876 1.35,23.149 8.182,46.663 14.48,54.62 2.629,5.53 4.795,8.951 4.795,8.951 l -3.374,1.551 -15.404,3.967 c 0,0 -6.37,-10.289 -8.703,-19.11 -2.32,-8.822 -1.717,-14.706 -1.717,-14.706 z" /></g><g
           transform="translate(189.0801,118.2783)"
           id="g302"><path
             id="path304"
             style="fill:#426c78;fill-opacity:1;fill-rule:nonzero;stroke:none"
             d="m 0,0 24.415,-30.69 c 0,0 -0.603,5.884 1.717,14.706 2.333,8.821 8.703,19.11 8.703,19.11 L 50.239,-0.841 34.338,6.488 C 29.803,-1.03 24.983,-10.905 21.964,-22.473 Z" /></g><g
           transform="translate(184.7109,206.2881)"
           id="g306"><path
             id="path308"
             style="fill:#426c78;fill-opacity:1;fill-rule:nonzero;stroke:none"
             d="M 0,0 C 0,0 10.657,14.208 18.625,27.185 26.357,39.771 28.879,41.535 29.021,41.63 14.813,34.515 0,0 0,0" /></g><g
           transform="translate(188.6064,316.6753)"
           id="g310"><path
             id="path312"
             style="fill:#04272f;fill-opacity:1;fill-rule:nonzero;stroke:none"
             d="M 0,0 C 0.189,-0.284 3.398,-4.736 12.895,-5.222 22.675,-5.707 31.011,1.303 37.735,9.816 35.013,7.886 31.91,6.181 28.003,5.103 26.381,3.363 22.888,0.545 16.15,-1.456 6.016,-4.464 0.332,-0.26 0,0" /></g><g
           transform="translate(189.6484,186.6797)"
           id="g314"><path
             id="path316"
             style="fill:#426c78;fill-opacity:1;fill-rule:nonzero;stroke:none"
             d="m 0,0 c 0,0 9.271,-6.358 21.585,-11.26 12.314,-4.902 21.124,-6.134 38.766,-6.134 V 0 C 45.657,0 47.374,-6.808 34.385,-6.95 21.396,-7.104 13.227,-0.899 0,0" /></g><g
           transform="translate(208.8418,270.3086)"
           id="g318"><path
             id="path320"
             style="fill:#04272f;fill-opacity:1;fill-rule:nonzero;stroke:none"
             d="m 0,0 c -2.119,0 -1.302,-4.085 0,-4.583 1.314,-0.485 4.168,3.766 11.758,8.905 7.601,5.15 19.11,1.468 29.399,1.468 v 4.984 c -6.038,0 -7.507,2.452 -7.507,2.452 0,0 -8.821,0.485 -15.688,-2.286 C 11.106,8.158 2.132,0 2.132,0 Z" /></g><g
           transform="translate(223.418,124.7666)"
           id="g322"><path
             id="path324"
             style="fill:#04272f;fill-opacity:1;fill-rule:nonzero;stroke:none"
             d="m 0,0 15.901,-7.329 3.374,-1.551 h 7.306 V 16.032 H 11.722 C 11.722,16.032 6.109,10.159 0,0" /></g><g
           transform="translate(223.418,52.3154)"
           id="g326"><path
             id="path328"
             style="fill:#426c78;fill-opacity:1;fill-rule:nonzero;stroke:none"
             d="M 0,0 C 1.207,-0.201 2.415,-0.391 3.623,-0.557 3.859,4.512 4.677,20.437 6.003,28.547 7.672,38.766 11.402,48.143 14.48,54.62 8.182,46.663 1.35,23.148 0,0" /></g><g
           transform="translate(234.5479,94.5029)"
           id="g330"><path
             id="path332"
             style="fill:#04272f;fill-opacity:1;fill-rule:nonzero;stroke:none"
             d="m 0,0 c -0.166,-1.125 -3.86,-25.208 -1.291,-43.49 5.506,-0.556 11.095,-0.84 16.742,-0.84 V 21.384 H 8.146 c 0,0 -2.167,-3.422 -4.795,-8.951 -3.079,-6.478 -6.809,-15.855 -8.478,-26.074 -1.326,-8.11 -2.144,-24.035 -2.38,-29.103 0.864,-0.118 1.717,-0.236 2.581,-0.331 0,0 -1.527,27.185 4.926,43.075" /></g><g
           transform="translate(232.5225,305.415)"
           id="g334"><path
             id="path336"
             style="fill:#04272f;fill-opacity:1;fill-rule:nonzero;stroke:none"
             d="m 0,0 c -5.719,0.166 -5.872,-6.204 -4.404,-6.855 1.467,-0.652 3.35,0.485 8.406,0.816 5.068,0.32 5.151,-5.067 13.475,-5.067 v 6.121 C 6.868,-4.985 5.72,-0.166 0,0" /></g><g
           transform="translate(234.5479,94.5029)"
           id="g338"><path
             id="path340"
             style="fill:#0f3744;fill-opacity:1;fill-rule:nonzero;stroke:none"
             d="m 0,0 c -6.453,-15.89 -4.926,-43.075 -4.926,-43.075 1.208,-0.154 2.415,-0.296 3.635,-0.415 C -3.86,-25.208 -0.166,-1.125 0,0" /></g><g
           transform="translate(231.0547,152.3906)"
           id="g342"><path
             id="path344"
             style="fill:#04272f;fill-opacity:1;fill-rule:nonzero;stroke:none"
             d="M 0,0 C 0,0 3.919,-5.068 18.944,-5.068 V 0 C 7.021,-0.166 0,0 0,0" /></g><g
           transform="translate(249.999,266.5435)"
           id="g346"><path
             id="path348"
             style="fill:#04272f;fill-opacity:1;fill-rule:nonzero;stroke:none"
             d="m 0,0 c -13.06,0 -19.927,-3.588 -19.927,-3.588 0,0 8.656,-4.57 19.927,-4.57 z" /></g><g
           transform="translate(266.3906,318.8076)"
           id="g350"><path
             id="path352"
             style="fill:#04272f;fill-opacity:1;fill-rule:nonzero;stroke:none"
             d="M 0,0 C -1.47,5.916 -7.386,21.382 -7.386,21.382 L 4.899,10.081 c 0,0 0.368,-6.725 -0.98,-8.079 C 2.572,0.649 0,0 0,0" /></g><g
           transform="translate(233.6094,318.8076)"
           id="g354"><path
             id="path356"
             style="fill:#04272f;fill-opacity:1;fill-rule:nonzero;stroke:none"
             d="M 0,0 C 1.47,5.916 7.386,21.382 7.386,21.382 L -4.899,10.081 c 0,0 -0.368,-6.725 0.98,-8.079 C -2.572,0.649 0,0 0,0" /></g><g
           transform="translate(257.5127,311.4341)"
           id="g358"><path
             id="path360"
             style="fill:#f8fbfc;fill-opacity:1;fill-rule:nonzero;stroke:none"
             d="M 0,0 C -2.317,-0.145 -3.838,13.575 -1.307,14.147 1.225,14.718 2.286,0.143 0,0" /></g><g
           transform="translate(275.3955,273.3198)"
           id="g362"><path
             id="path364"
             style="fill:#f8fbfc;fill-opacity:1;fill-rule:nonzero;stroke:none"
             d="M 0,0 C -1.881,1.39 -8.819,1.797 -9.064,0 -9.309,-1.796 1.878,-1.388 0,0" /></g><g
           transform="translate(322.0908,328.4375)"
           id="g366"><path
             id="path368"
             style="fill:#f8fbfc;fill-opacity:1;fill-rule:nonzero;stroke:none"
             d="m 0,0 c -1.294,-3.347 -4.355,-10.963 -11.95,-15.239 0,0 5.635,0.268 9.064,5.774 C 0.544,-3.959 0,0 0,0" /></g><g
           transform="translate(181.7822,321.6865)"
           id="g370"><path
             id="path372"
             style="fill:#f8fbfc;fill-opacity:1;fill-rule:nonzero;stroke:none"
             d="m 0,0 c 3.076,-5.113 6.51,-7.499 10.04,-9.607 0,0 -3.612,0.023 -6.915,2.529 C -0.178,-4.571 0,0 0,0" /></g><g
           transform="translate(303.2285,197.6201)"
           id="g374"><path
             id="path376"
             style="fill:#f8fbfc;fill-opacity:1;fill-rule:nonzero;stroke:none"
             d="m 0,0 c 0.845,7.881 -10.175,33.156 -12.594,34.626 -2.419,1.47 2.678,-5.634 5.642,-18.618 C -3.989,3.024 -0.666,-6.209 0,0" /></g><g
           transform="translate(264.2148,340.9424)"
           id="g378"><path
             id="path380"
             style="fill:#04272f;fill-opacity:1;fill-rule:nonzero;stroke:none"
             d="m 0,0 c 1.615,-2.843 8.794,-15.283 13.549,-20.27 4.094,-4.295 29.871,-1.397 37.024,0.671 1.974,1.539 4.03,13.394 4.629,26.243 L 0,6.644 Z m 25.673,-27.744 c -6.863,0 -13.101,0.952 -15.894,3.881 -5.812,6.098 -14.299,21.268 -14.657,21.911 l -0.329,0.591 V 11.851 H 60.59 L 60.51,9.169 C 60.5,8.861 60.272,1.549 59.346,-6.102 c -1.809,-14.928 -4.654,-17.71 -7.199,-18.461 -1.724,-0.51 -14.975,-3.181 -26.474,-3.181" /></g><g
           transform="translate(264.2148,344.3882)"
           id="g382"><path
             id="path384"
             style="fill:#70a2af;fill-opacity:1;fill-rule:nonzero;stroke:none"
             d="m 0,0 c 0,-2.284 0.607,-4.527 1.767,-6.496 2.862,-4.861 8.063,-13.319 11.782,-17.22 4.094,-4.295 29.871,-1.397 37.024,0.672 1.818,1.417 3.704,11.578 4.46,23.209 0.107,1.641 -1.2,3.033 -2.845,3.033 L 0,3.198 Z" /></g><g
           transform="translate(323.5059,345.7085)"
           id="g386"><path
             id="path388"
             style="fill:#f8fbfc;fill-opacity:1;fill-rule:nonzero;stroke:none"
             d="m 0,0 c 0,0 -0.008,-0.377 -0.021,-1.037 -0.032,-0.659 -0.052,-1.603 -0.138,-2.731 -0.084,-1.128 -0.173,-2.446 -0.324,-3.853 -0.139,-1.407 -0.341,-2.903 -0.555,-4.398 -0.238,-1.491 -0.485,-2.982 -0.791,-4.367 -0.287,-1.388 -0.645,-2.665 -0.959,-3.755 -0.322,-1.088 -0.678,-1.968 -0.93,-2.579 -0.263,-0.607 -0.435,-0.943 -0.435,-0.943 0,0 0.132,0.354 0.321,0.985 0.204,0.625 0.439,1.536 0.706,2.629 0.259,1.095 0.511,2.384 0.759,3.769 0.252,1.384 0.489,2.868 0.714,4.354 0.213,1.484 0.424,2.959 0.627,4.371 0.186,1.369 0.368,2.707 0.52,3.822 0.144,1.067 0.277,2.061 0.364,2.706 C -0.052,-0.374 0,0 0,0" /></g><g
           transform="translate(316.168,318.2544)"
           id="g390"><path
             id="path392"
             style="fill:#f8fbfc;fill-opacity:1;fill-rule:nonzero;stroke:none"
             d="m 0,0 c 0,0 -0.173,-0.07 -0.477,-0.194 -0.307,-0.106 -0.744,-0.278 -1.282,-0.43 -0.537,-0.152 -1.161,-0.339 -1.839,-0.503 -0.676,-0.167 -1.404,-0.321 -2.131,-0.469 -0.73,-0.137 -1.46,-0.271 -2.15,-0.372 -0.688,-0.108 -1.337,-0.172 -1.891,-0.24 -0.552,-0.07 -1.02,-0.085 -1.344,-0.114 -0.327,-0.015 -0.513,-0.023 -0.513,-0.023 0,0 0.178,0.052 0.493,0.143 0.316,0.077 0.762,0.215 1.305,0.339 0.535,0.125 1.225,0.287 1.85,0.434 0.714,0.149 1.412,0.294 2.13,0.444 0.721,0.132 1.423,0.262 2.139,0.394 0.635,0.104 1.331,0.218 1.873,0.308 0.474,0.073 1.021,0.158 1.33,0.206 C -0.185,-0.028 0,0 0,0" /></g><g
           transform="translate(266.1729,335.0859)"
           id="g394"><path
             id="path396"
             style="fill:#f8fbfc;fill-opacity:1;fill-rule:nonzero;stroke:none"
             d="m 0,0 c 0,0 0.142,-0.209 0.391,-0.574 0.241,-0.358 0.636,-0.947 1.02,-1.517 0.415,-0.625 0.928,-1.397 1.428,-2.149 0.53,-0.811 1.07,-1.635 1.618,-2.473 0.543,-0.84 1.078,-1.666 1.605,-2.48 0.488,-0.757 0.991,-1.536 1.398,-2.166 0.373,-0.575 0.761,-1.172 0.995,-1.532 0.24,-0.373 0.376,-0.585 0.376,-0.585 0,0 -0.171,0.185 -0.473,0.511 -0.288,0.335 -0.718,0.801 -1.182,1.401 -0.468,0.596 -1.017,1.291 -1.568,2.062 -0.553,0.768 -1.119,1.606 -1.673,2.45 C 3.389,-6.203 2.854,-5.346 2.374,-4.53 1.891,-3.715 1.476,-2.934 1.111,-2.27 0.747,-1.606 0.483,-1.029 0.286,-0.634 0.104,-0.23 0,0 0,0" /></g><g
           transform="translate(236.6318,347.5859)"
           id="g398"><path
             id="path400"
             style="fill:#04272f;fill-opacity:1;fill-rule:nonzero;stroke:none"
             d="m 0,0 h -55.202 c 0.599,-12.849 2.655,-24.703 4.629,-26.242 7.153,-2.069 32.93,-4.967 37.024,-0.672 4.755,4.988 11.934,17.428 13.549,20.27 z m -52.147,-31.207 c -2.545,0.752 -5.39,3.533 -7.199,18.462 -0.926,7.65 -1.154,14.963 -1.164,15.27 l -0.08,2.682 H 5.207 V -8.004 L 4.878,-8.595 C 4.52,-9.238 -3.967,-24.409 -9.779,-30.506 c -2.793,-2.93 -9.031,-3.881 -15.894,-3.881 -11.499,0 -24.75,2.671 -26.474,3.18" /></g><g
           transform="translate(236.6318,347.5859)"
           id="g402"><path
             id="path404"
             style="fill:#70a2af;fill-opacity:1;fill-rule:nonzero;stroke:none"
             d="m 0,0 h -52.188 c -1.645,0 -2.951,-1.392 -2.844,-3.033 0.756,-11.631 2.642,-21.792 4.459,-23.209 7.153,-2.069 32.93,-4.967 37.024,-0.672 3.719,3.901 8.92,12.359 11.783,17.221 C -0.606,-7.725 0,-5.481 0,-3.198 Z" /></g><g
           transform="translate(177.3408,345.7085)"
           id="g406"><path
             id="path408"
             style="fill:#f8fbfc;fill-opacity:1;fill-rule:nonzero;stroke:none"
             d="m 0,0 c 0,0 0.052,-0.374 0.143,-1.027 0.086,-0.645 0.219,-1.639 0.364,-2.706 0.151,-1.115 0.333,-2.453 0.519,-3.822 0.203,-1.412 0.414,-2.887 0.627,-4.371 0.225,-1.486 0.462,-2.97 0.714,-4.354 0.249,-1.385 0.5,-2.674 0.759,-3.769 0.267,-1.093 0.502,-2.004 0.706,-2.629 0.19,-0.631 0.321,-0.985 0.321,-0.985 0,0 -0.171,0.336 -0.435,0.943 -0.252,0.611 -0.607,1.491 -0.93,2.579 -0.314,1.09 -0.672,2.367 -0.959,3.755 -0.306,1.385 -0.552,2.876 -0.791,4.367 -0.213,1.495 -0.416,2.991 -0.555,4.398 -0.15,1.407 -0.24,2.725 -0.324,3.853 C 0.074,-2.64 0.053,-1.696 0.022,-1.037 0.008,-0.377 0,0 0,0" /></g><g
           transform="translate(289.542,319.4517)"
           id="g410"><path
             id="path412"
             style="fill:#70a2af;fill-opacity:1;fill-rule:nonzero;stroke:none"
             d="m 0,0 c -8.334,0 -10.507,1.336 -11.055,1.911 -3.669,3.848 -8.87,12.326 -11.644,17.037 -1.065,1.809 -1.628,3.88 -1.628,5.989 v 2.197 h 51.188 c 0.517,0 0.996,-0.208 1.351,-0.586 0.353,-0.377 0.529,-0.868 0.496,-1.381 C 27.873,12.32 25.917,4.117 24.744,2.79 20.445,1.604 9.192,0 0.002,0 Z" /></g><g
           transform="translate(211.3057,319.4517)"
           id="g414"><path
             id="path416"
             style="fill:#70a2af;fill-opacity:1;fill-rule:nonzero;stroke:none"
             d="m 0,0 c -9.193,0 -20.446,1.604 -24.745,2.79 -1.172,1.328 -3.128,9.53 -3.963,22.377 -0.033,0.514 0.143,1.005 0.496,1.382 0.354,0.377 0.833,0.585 1.35,0.585 h 51.188 v -2.197 c 0,-2.11 -0.562,-4.181 -1.627,-5.989 C 19.923,14.235 14.719,5.755 11.054,1.911 10.506,1.336 8.332,0 0,0" /></g><g
           transform="translate(316.3496,346.5859)"
           id="g418"><path
             id="path420"
             style="fill:#f8fbfc;fill-opacity:1;fill-rule:nonzero;stroke:none"
             d="m 0,0 h -11.164 l -10.905,-27.006 c 3.991,0.198 8.068,0.612 11.608,1.102 z" /></g><g
           transform="translate(216.7305,346.5859)"
           id="g422"><path
             id="path424"
             style="fill:#f8fbfc;fill-opacity:1;fill-rule:nonzero;stroke:none"
             d="m 0,0 -10.891,-26.97 c 1.856,-0.104 3.699,-0.164 5.466,-0.164 2.392,0 4.262,0.112 5.745,0.282 L 11.164,0 Z" /></g><g
           transform="translate(365.7402,331.8428)"
           id="g426"><path
             id="path428"
             style="fill:#04272f;fill-opacity:1;fill-rule:nonzero;stroke:none"
             d="m 0,0 c -5.932,-1.409 -12.172,-2.522 -17.95,-3.386 0.012,0.154 0.024,0.32 0.036,0.473 1.172,11.983 -7.045,14.221 -18.022,10.147 -0.201,0.924 -0.402,1.859 -0.591,2.795 -1.019,4.712 -2.084,9.508 -3.173,14.339 v 0.023 c -0.166,0.746 -0.344,1.504 -0.51,2.25 7.874,1.657 16.162,2.806 26.215,2.806 19.572,0 30.11,-2.806 35.817,-6.512 0.024,-0.024 0.047,-0.036 0.071,-0.047 2.557,-2.061 4.168,-4.334 4.452,-6.832 C 27.197,8.573 14.552,3.434 0,0" /></g><g
           transform="translate(325.5303,358.4839)"
           id="g430"><path
             id="path432"
             style="fill:#0f3744;fill-opacity:1;fill-rule:nonzero;stroke:none"
             d="m 0,0 c -20.259,-4.274 -37.771,-11.9 -75.529,-11.9 v 1.457 c 43.702,0 54.785,10.727 79.803,13.166 C 4.57,2.747 4.854,2.782 5.15,2.806 30.785,5.067 -4.642,4.298 -28.606,-2.416 -48.214,-7.91 -65.571,-7.827 -75.529,-7.827 V 12.93 c 15.676,0 58.467,1.716 75.612,0 0,0 46.924,-4.63 61.949,-16.636 C 56.325,0 45.787,2.806 26.215,2.806 16.162,2.806 7.874,1.657 0,0" /></g><g
           transform="translate(296.9238,356.0684)"
           id="g434"><path
             id="path436"
             style="fill:#426c78;fill-opacity:1;fill-rule:nonzero;stroke:none"
             d="M 0,0 C 23.965,6.713 59.392,7.483 33.757,5.222 33.461,5.198 33.177,5.162 32.881,5.139 7.862,2.7 -3.221,-8.028 -46.923,-8.028 v 2.617 C -36.965,-5.411 -19.607,-5.494 0,0" /></g><g
           transform="translate(325.1396,372.7632)"
           id="g438"><path
             id="path440"
             style="fill:#426c78;fill-opacity:1;fill-rule:nonzero;stroke:none"
             d="m 0,0 c 0.308,-0.876 0.474,-1.35 0.474,-1.35 -17.145,1.717 -59.936,0 -75.613,0 v 15.902 c 11.19,0 42.625,0.521 42.625,0.521 0,0 -29.718,0.959 -42.625,0.959 v 0.971 c 14.966,0 51.352,-0.19 69.55,-1.717 C -3.339,9.33 -1.562,4.417 -0.532,1.504 -22.07,4.25 -42.921,1.208 -42.921,1.208 -10.1,2.309 0,0 0,0" /></g><g
           transform="translate(324.6074,374.2671)"
           id="g442"><path
             id="path444"
             style="fill:#0f3744;fill-opacity:1;fill-rule:nonzero;stroke:none"
             d="m 0,0 c 0.213,-0.581 0.391,-1.089 0.532,-1.504 0,0 -10.099,2.309 -42.921,1.208 0,0 20.851,3.043 42.389,0.296" /></g><g
           transform="translate(291.1582,445.8892)"
           id="g446"><path
             id="path448"
             style="fill:#0f3744;fill-opacity:1;fill-rule:nonzero;stroke:none"
             d="m 0,0 c 8.217,-6.903 20.922,-38.079 28.393,-57.84 -18.199,1.527 -54.584,1.717 -69.55,1.717 v 44.01 c 19.429,2.783 24.817,14.209 24.817,14.209 0,0 -8.502,-2.404 -15.748,-4.606 C -21.312,2.131 -9.484,7.969 0,0" /></g><g
           transform="translate(250.001,388.7949)"
           id="g450"><path
             id="path452"
             style="fill:#0f3744;fill-opacity:1;fill-rule:nonzero;stroke:none"
             d="m 0,0 c 12.906,0 42.625,-0.959 42.625,-0.959 0,0 -31.436,-0.521 -42.625,-0.521 z" /></g><g
           transform="translate(274.8184,447.9849)"
           id="g454"><path
             id="path456"
             style="fill:#04272f;fill-opacity:1;fill-rule:nonzero;stroke:none"
             d="m 0,0 c 0,0 -5.388,-11.426 -24.817,-14.208 v 6.228 c 2.841,0.77 5.86,2.001 8.974,3.339 0.036,0.012 0.06,0.023 0.095,0.035 C -8.502,-2.403 0,0 0,0" /></g><g
           transform="translate(134.2598,331.8428)"
           id="g458"><path
             id="path460"
             style="fill:#04272f;fill-opacity:1;fill-rule:nonzero;stroke:none"
             d="m 0,0 c 5.932,-1.409 12.172,-2.522 17.95,-3.386 -0.012,0.154 -0.024,0.32 -0.036,0.473 -1.172,11.983 7.045,14.221 18.022,10.147 0.201,0.924 0.402,1.859 0.591,2.795 1.019,4.712 2.084,9.508 3.173,14.339 v 0.023 c 0.166,0.746 0.344,1.504 0.51,2.25 -7.874,1.657 -16.162,2.806 -26.215,2.806 -19.572,0 -30.11,-2.806 -35.817,-6.512 -0.024,-0.024 -0.047,-0.036 -0.071,-0.047 -2.558,-2.061 -4.168,-4.334 -4.452,-6.832 C -27.197,8.573 -14.552,3.434 0,0" /></g><g
           transform="translate(174.4697,358.4839)"
           id="g462"><path
             id="path464"
             style="fill:#0f3744;fill-opacity:1;fill-rule:nonzero;stroke:none"
             d="m 0,0 c 20.259,-4.274 37.771,-11.9 75.529,-11.9 v 1.457 C 31.827,-10.443 20.744,0.284 -4.274,2.723 -4.57,2.747 -4.854,2.782 -5.15,2.806 -30.785,5.067 4.642,4.298 28.606,-2.416 48.214,-7.91 65.571,-7.827 75.529,-7.827 V 12.93 c -15.676,0 -58.467,1.716 -75.612,0 0,0 -46.923,-4.63 -61.949,-16.636 C -56.325,0 -45.787,2.806 -26.215,2.806 -16.162,2.806 -7.874,1.657 0,0" /></g><g
           transform="translate(203.0762,356.0684)"
           id="g466"><path
             id="path468"
             style="fill:#426c78;fill-opacity:1;fill-rule:nonzero;stroke:none"
             d="m 0,0 c -23.965,6.713 -59.392,7.483 -33.757,5.222 0.296,-0.024 0.58,-0.06 0.876,-0.083 C -7.862,2.7 3.221,-8.028 46.923,-8.028 v 2.617 C 36.965,-5.411 19.607,-5.494 0,0" /></g><g
           transform="translate(174.8604,372.7632)"
           id="g470"><path
             id="path472"
             style="fill:#426c78;fill-opacity:1;fill-rule:nonzero;stroke:none"
             d="m 0,0 c -0.308,-0.876 -0.474,-1.35 -0.474,-1.35 17.145,1.717 59.936,0 75.613,0 v 15.902 c -11.19,0 -42.625,0.521 -42.625,0.521 0,0 29.718,0.959 42.625,0.959 v 0.971 c -14.966,0 -51.352,-0.19 -69.55,-1.717 C 3.339,9.33 1.562,4.417 0.532,1.504 22.07,4.25 42.921,1.208 42.921,1.208 10.1,2.309 0,0 0,0" /></g><g
           transform="translate(175.3926,374.2671)"
           id="g474"><path
             id="path476"
             style="fill:#0f3744;fill-opacity:1;fill-rule:nonzero;stroke:none"
             d="m 0,0 c -0.213,-0.581 -0.391,-1.089 -0.532,-1.504 0,0 10.099,2.309 42.921,1.208 0,0 -20.851,3.043 -42.389,0.296" /></g><g
           transform="translate(208.8418,445.8892)"
           id="g478"><path
             id="path480"
             style="fill:#0f3744;fill-opacity:1;fill-rule:nonzero;stroke:none"
             d="m 0,0 c -8.217,-6.903 -20.922,-38.079 -28.393,-57.84 18.199,1.527 54.584,1.717 69.55,1.717 v 44.01 C 21.728,-9.33 16.34,2.096 16.34,2.096 c 0,0 8.502,-2.404 15.748,-4.606 C 21.312,2.131 9.484,7.969 0,0" /></g><g
           transform="translate(249.999,388.7949)"
           id="g482"><path
             id="path484"
             style="fill:#0f3744;fill-opacity:1;fill-rule:nonzero;stroke:none"
             d="m 0,0 c -12.906,0 -42.625,-0.959 -42.625,-0.959 0,0 31.436,-0.521 42.625,-0.521 z" /></g><g
           transform="translate(225.1816,447.9849)"
           id="g486"><path
             id="path488"
             style="fill:#04272f;fill-opacity:1;fill-rule:nonzero;stroke:none"
             d="m 0,0 c 0,0 5.388,-11.426 24.817,-14.208 v 6.228 c -2.841,0.77 -5.86,2.001 -8.974,3.339 -0.036,0.012 -0.06,0.023 -0.095,0.035 C 8.502,-2.403 0,0 0,0" /></g></g></g></g></svg>